<svg width="28" height="28" viewBox="0 0 28 28" fill="none" xmlns="http://www.w3.org/2000/svg">
<path d="M8.68531 19.3195C8.6561 19.4383 8.52469 19.8537 8.29105 20.566C8.05742 21.2485 7.85299 21.9163 7.67777 22.5691C7.53175 23.1924 7.45874 23.8304 7.45874 24.4833C7.45874 25.1065 7.60476 25.7 7.8968 26.2639C8.18884 26.7981 8.6561 27.0652 9.29859 27.0652C10.3499 27.0652 11.3721 26.3529 12.365 24.9285C13.358 23.4743 14.4093 21.6343 15.519 19.4086C15.7527 18.9931 15.9717 18.8299 16.1761 18.9189C16.3222 19.0376 16.3514 19.2008 16.2638 19.4086C16.1761 19.5866 15.9863 20.0021 15.6943 20.655C15.4314 21.2782 15.227 21.7234 15.081 21.9905C14.9642 22.2279 14.7305 22.673 14.3801 23.3259C14.0588 23.9491 13.7668 24.4239 13.504 24.7504C13.2703 25.0472 12.9345 25.4478 12.4964 25.9523C12.0876 26.4271 11.6933 26.7832 11.3137 27.0207C10.2915 27.6735 9.3278 28 8.42247 28C7.51715 28 6.81625 27.8071 6.31978 27.4213C5.82331 27.0058 5.51667 26.5755 5.39986 26.1304C5.31224 25.6555 5.26844 25.2401 5.26844 24.8839C5.26844 24.5278 5.28304 24.0678 5.31224 23.504C5.39986 22.5543 5.57508 21.6343 5.83792 20.744C6.12996 19.8537 6.29058 19.3492 6.31978 19.2305C6.99147 16.7674 7.9406 14.0816 9.16717 11.1733C10.4229 8.26497 11.4743 6.08373 12.3212 4.62957C13.1973 3.14573 13.8836 2.13672 14.3801 1.60254C15.373 0.534181 16.3514 0 17.3151 0C17.9868 0 18.4395 0.489666 18.6731 1.469C18.7023 1.64706 18.7169 1.86963 18.7169 2.13672C18.7169 3.14573 18.3664 4.42183 17.6655 5.96502C15.154 11.6333 12.1606 16.0848 8.68531 19.3195ZM9.03575 17.8951C10.5252 16.3519 12 14.408 13.4602 12.0636C14.9204 9.71913 15.9863 7.73079 16.658 6.09857C17.3589 4.43667 17.7093 3.30896 17.7093 2.71542C17.7093 2.12189 17.6071 1.82512 17.4027 1.82512C17.1107 1.82512 16.5558 2.41865 15.7381 3.60572C14.9204 4.76311 13.8106 6.87016 12.4088 9.92687C11.0362 12.9539 9.91187 15.61 9.03575 17.8951Z" fill="#222222"/>
<path d="M17.9684 19.3195C17.9392 19.4383 17.8078 19.8537 17.5742 20.566C17.3405 21.2485 17.1361 21.9163 16.9609 22.5691C16.8149 23.1924 16.7419 23.8304 16.7419 24.4833C16.7419 25.1065 16.8879 25.7 17.1799 26.2639C17.472 26.7981 17.9392 27.0652 18.5817 27.0652C19.633 27.0652 20.6552 26.3529 21.6481 24.9285C22.6411 23.4743 23.6924 21.6343 24.8022 19.4086C25.0358 18.9931 25.2548 18.8299 25.4593 18.9189C25.6053 19.0376 25.6345 19.2008 25.5469 19.4086C25.4592 19.5866 25.2694 20.0021 24.9774 20.655C24.7146 21.2782 24.5101 21.7234 24.3641 21.9905C24.2473 22.2279 24.0137 22.673 23.6632 23.3259C23.342 23.9491 23.0499 24.4239 22.7871 24.7504C22.5535 25.0472 22.2176 25.4478 21.7795 25.9523C21.3707 26.4271 20.9764 26.7832 20.5968 27.0207C19.5746 27.6735 18.6109 28 17.7056 28C16.8003 28 16.0994 27.8071 15.6029 27.4213C15.1064 27.0058 14.7998 26.5755 14.683 26.1304C14.5954 25.6555 14.5516 25.2401 14.5516 24.8839C14.5516 24.5278 14.5662 24.0678 14.5954 23.504C14.683 22.5543 14.8582 21.6343 15.121 20.744C15.4131 19.8537 15.5737 19.3492 15.6029 19.2305C16.2746 16.7674 17.2237 14.0816 18.4503 11.1733C19.7061 8.26497 20.7574 6.08373 21.6043 4.62957C22.4804 3.14573 23.1667 2.13672 23.6632 1.60254C24.6561 0.534181 25.6345 0 26.5982 0C27.2699 0 27.7226 0.489666 27.9562 1.469C27.9854 1.64706 28 1.86963 28 2.13672C28 3.14573 27.6496 4.42183 26.9487 5.96502C24.4371 11.6333 21.4437 16.0848 17.9684 19.3195ZM18.3189 17.8951C19.8083 16.3519 21.2831 14.408 22.7433 12.0636C24.2035 9.71913 25.2694 7.73079 25.9411 6.09857C26.642 4.43667 26.9925 3.30896 26.9925 2.71542C26.9925 2.12189 26.8902 1.82512 26.6858 1.82512C26.3938 1.82512 25.8389 2.41865 25.0212 3.60572C24.2035 4.76311 23.0937 6.87016 21.6919 9.92687C20.3193 12.9539 19.195 15.61 18.3189 17.8951Z" fill="#222222"/>
<path d="M2.77651 25.2846C1.9588 26.3233 0.703024 27.4213 0.148148 27.4213C0.148148 27.4213 0 27.5532 0 27.7021C0 28 0.148148 28 0.148148 28C1.988 28 4.25131 25.2401 6.93808 19.7202C7.02569 19.5125 7.0695 19.3344 7.0695 19.186C7.0695 18.9189 6.95268 18.8299 6.71905 18.9189C6.57303 18.9486 6.44161 19.097 6.3248 19.3641C5.15664 21.7976 3.97387 23.7711 2.77651 25.2846Z" fill="#222222"/>
</svg>
