<svg width="22" height="27" viewBox="0 0 22 27" fill="none" xmlns="http://www.w3.org/2000/svg">
<path d="M10.6104 11.721C10.2573 11.721 9.81816 11.6536 9.28675 11.5075C8.8147 11.3741 8.45956 11.1511 8.20049 10.8481C7.90819 10.4917 7.73546 10.1693 7.65784 9.88099C7.56616 9.54044 7.52643 9.27353 7.52643 9.07252C7.52643 8.85241 7.56113 8.62156 7.63399 8.37869L7.6346 8.37661C7.95781 7.27772 8.52179 6.49401 9.31229 5.9876L9.3142 5.98637C9.77509 5.68742 10.2696 5.50859 10.8017 5.44671L10.8091 5.44586L10.8164 5.44474C11.0198 5.41344 11.2092 5.36511 11.3811 5.29635C11.4692 5.26112 11.5869 5.20353 11.6766 5.10257C11.7257 5.04737 11.7742 4.97036 11.795 4.87128C11.8165 4.76924 11.8027 4.67204 11.7698 4.58977C11.6463 4.28099 11.3368 4.23463 11.1703 4.23463C11.0049 4.23463 10.8207 4.26174 10.6241 4.30709L10.6238 4.30717C9.45477 4.57804 8.46525 4.98168 7.66764 5.52819L7.66763 5.52818L7.66476 5.53018C6.90659 6.05947 6.36141 6.61531 6.0973 7.20957L6.0972 7.20952L6.09359 7.21817C5.87096 7.7525 5.75176 8.26834 5.75176 8.76145C5.75176 9.68236 6.08304 10.5082 6.72409 11.2257C7.2163 11.7794 7.86761 12.2059 8.66121 12.5145C9.33793 12.7777 10.0592 12.9276 10.8226 12.9668C10.1735 14.2692 9.59538 15.3258 9.08811 16.1398C8.55054 16.0552 7.96535 16.0137 7.33381 16.0137C5.29022 16.0137 3.62193 16.3649 2.36322 17.1047C1.27276 17.7304 0.608789 18.5282 0.608789 19.5244C0.608789 19.9883 0.725935 20.4118 0.972085 20.7788C1.21595 21.1425 1.5707 21.4275 2.01113 21.6444C2.5302 21.9111 3.11166 22.0396 3.74618 22.0396C4.4216 22.0396 5.16018 21.8286 5.95304 21.4396C7.24913 20.8192 8.46974 19.7074 9.62313 18.1408C10.6491 18.3419 11.4684 18.5242 12.0839 18.6875L12.0838 18.6876L12.0931 18.6898C12.7525 18.848 13.5369 19.1283 14.4493 19.5369L14.4493 19.5369L14.4559 19.5397C15.3725 19.9307 16.0637 20.339 16.5465 20.7577C17.0304 21.1912 17.3449 21.6476 17.5118 22.1243C17.6945 22.6463 17.7797 23.1055 17.7797 23.506C17.7797 23.9142 17.7055 24.2442 17.573 24.5092L17.5686 24.518L17.5647 24.527C17.4873 24.7029 17.4264 24.8499 17.3842 24.9651C17.3631 25.0225 17.3448 25.0771 17.3313 25.1264C17.3202 25.1668 17.3027 25.2361 17.3027 25.3102C17.3027 25.4275 17.3414 25.5816 17.4777 25.6952C17.6001 25.7972 17.74 25.8139 17.8271 25.8139C17.9355 25.8139 18.0409 25.7846 18.1252 25.7551C18.2159 25.7234 18.3153 25.6792 18.4208 25.6265C18.709 25.4824 18.9253 25.2317 19.0877 24.9269C19.2827 24.6023 19.3677 24.218 19.3677 23.7963C19.3677 23.3679 19.2733 22.8759 19.1005 22.3286C18.7561 21.2214 18.0897 20.2907 17.1178 19.5396L17.1171 19.5391C15.3855 18.2071 13.2417 17.2019 10.6966 16.5148L10.847 16.2713L10.8522 16.2629L10.857 16.2542C11.2215 15.5928 11.8033 14.4571 12.6006 12.8521C14.0598 12.5719 15.4646 11.9499 16.8138 10.9959L16.8144 10.9955C18.2372 9.98528 19.356 8.7978 20.1618 7.43126C20.9765 6.07294 21.4 4.74474 21.4 3.45258C21.4 3.28916 21.3926 3.11983 21.3781 2.94473C21.3394 2.41372 21.0492 1.98945 20.5886 1.67463C20.1543 1.35479 19.6733 1.18618 19.1543 1.18618C18.6808 1.18618 18.2011 1.28894 17.718 1.48519L17.718 1.48513L17.7118 1.4878C15.8707 2.27252 14.3676 4.32599 13.1414 7.47446C13.1413 7.47489 13.1411 7.47531 13.1409 7.47574L11.4686 11.6859C11.2045 11.7091 10.9185 11.721 10.6104 11.721ZM6.54577 17.7469C7.02052 17.7469 7.48499 17.7814 7.9394 17.8502C7.09454 18.9344 6.20432 19.6896 5.27439 20.138C4.55285 20.4789 3.907 20.6382 3.33142 20.6382C2.93162 20.6382 2.56608 20.5392 2.22723 20.3406L2.2234 20.3384C1.92587 20.1684 1.84428 19.9943 1.84428 19.8147C1.84428 19.7501 1.85859 19.6693 1.89862 19.5692L1.89881 19.5693L1.90315 19.5574C2.0017 19.2864 2.22921 19.0117 2.64764 18.7482C3.06704 18.4841 3.65507 18.2466 4.4278 18.045L4.42781 18.045L4.43208 18.0439C5.16143 17.8449 5.86565 17.7469 6.54577 17.7469ZM17.5116 8.51179C16.2532 9.88355 14.8728 10.8118 13.3698 11.3125C13.8354 10.3658 14.3472 9.356 14.9051 8.28306C15.6282 6.90516 16.3744 5.73973 17.1423 4.78299C17.6343 4.1834 18.0753 3.75117 18.4647 3.47166C18.8573 3.18992 19.1665 3.08528 19.4032 3.08528C19.5746 3.08528 19.6322 3.13029 19.6533 3.15328C19.6802 3.18249 19.729 3.26451 19.729 3.47332C19.729 5.20346 19.0091 6.88058 17.5117 8.51168L17.5116 8.51179Z" fill="#222222" stroke="#222222" stroke-width="0.8"/>
</svg>
