<svg width="30" height="30" viewBox="0 0 30 30" fill="none" xmlns="http://www.w3.org/2000/svg">
<path d="M7.08776 20.5672C7.14957 20.3716 7.18634 20.2497 7.1984 20.2007L7.19915 20.1976L7.19918 20.1976C7.87263 17.728 8.82376 15.037 10.052 12.1247L10.0524 12.1237C11.3088 9.21408 12.3625 7.02738 13.2132 5.56666L13.2136 5.56601C14.0898 4.08204 14.782 3.0625 15.2885 2.51745C16.293 1.43665 17.3021 0.875 18.3151 0.875C18.6855 0.875 19 1.01176 19.2502 1.2824C19.4966 1.54902 19.6752 1.93926 19.7947 2.43999L19.7968 2.44871L19.7964 2.44877C19.8271 2.63587 19.8419 2.86575 19.8419 3.13672C19.8419 4.1716 19.4834 5.46656 18.7796 7.01614C16.2696 12.6807 13.2764 17.1393 9.797 20.3863C9.75332 20.5456 9.62331 20.9541 9.40983 21.6049L9.40933 21.6065C9.17677 22.2859 8.97335 22.9502 8.79902 23.5996C8.65553 24.2127 8.58374 24.8405 8.58374 25.4833C8.58374 26.0856 8.72456 26.6591 9.00713 27.2051C9.14346 27.4541 9.31762 27.6359 9.52831 27.7563C9.73969 27.8772 9.99488 27.9402 10.2986 27.9402C11.2879 27.9402 12.2773 27.2701 13.2621 25.8575C14.2507 24.4096 15.2991 22.5751 16.4072 20.3528L16.41 20.3472L16.4101 20.3473C16.4296 20.3126 16.4492 20.2793 16.4689 20.2473C16.4745 20.2277 16.4787 20.2122 16.4815 20.2007L16.4823 20.1976L16.4823 20.1976C17.1557 17.728 18.1069 15.037 19.3351 12.1247L19.3355 12.1237C20.5919 9.21408 21.6456 7.02738 22.4963 5.56666L22.4967 5.56601C23.3729 4.08204 24.0651 3.0625 24.5716 2.51745C25.5761 1.43665 26.5853 0.875 27.5982 0.875C27.9686 0.875 28.2831 1.01176 28.5333 1.2824C28.7797 1.54902 28.9583 1.93926 29.0778 2.43999L29.0799 2.44871L29.0795 2.44877C29.1102 2.63587 29.125 2.86575 29.125 3.13672C29.125 4.1716 28.7665 5.46656 28.0627 7.01614C25.5528 12.6807 22.5595 17.1393 19.0801 20.3863C19.0364 20.5455 18.9064 20.9541 18.6929 21.6049L18.6924 21.6065C18.4599 22.2859 18.2565 22.9502 18.0821 23.5996C17.9386 24.2127 17.8669 24.8405 17.8669 25.4833C17.8669 26.0857 18.0077 26.6591 18.2903 27.2052C18.4266 27.4541 18.6007 27.6359 18.8114 27.7563C19.0228 27.8772 19.278 27.9402 19.5817 27.9402C20.5711 27.9402 21.5605 27.2701 22.5453 25.8574C23.5339 24.4095 24.5823 22.5751 25.6903 20.3528L25.6931 20.3472L25.6932 20.3473C25.8131 20.134 25.9366 19.9714 26.067 19.8743C26.2029 19.773 26.356 19.7376 26.5092 19.8043L26.5248 19.8111L26.5381 19.8219C26.631 19.8974 26.6931 19.9933 26.7137 20.1083C26.7339 20.2209 26.712 20.3388 26.662 20.4572L26.6592 20.4639L26.659 20.4638C26.5727 20.6392 26.384 21.052 26.092 21.7049C25.83 22.326 25.6242 22.7749 25.4751 23.0481C25.3568 23.2882 25.1227 23.7341 24.7738 24.3841C24.4513 25.0098 24.1551 25.4925 23.8849 25.8282M7.08776 20.5672L22.7795 26.9523M7.08776 20.5672C5.96273 22.8773 4.82604 24.7565 3.67848 26.207L3.67829 26.2073C3.27465 26.72 2.76235 27.2478 2.28377 27.6464C2.04441 27.8457 1.816 28.0106 1.61591 28.125C1.41132 28.2419 1.2527 28.2963 1.14815 28.2963H1.10057L1.06503 28.3279L1.14815 28.4213M7.08776 20.5672L1.14815 28.4213M23.8849 25.8282C23.6494 26.1273 23.3122 26.5295 22.8739 27.0343M23.8849 25.8282C23.8847 25.8284 23.8846 25.8286 23.8844 25.8288L23.7871 25.7504L23.8853 25.8277C23.8852 25.8279 23.885 25.8281 23.8849 25.8282ZM22.8739 27.0343L22.7795 26.9523M22.8739 27.0343C22.874 27.0341 22.8742 27.034 22.8743 27.0339L22.7795 26.9523M22.8739 27.0343C22.4602 27.5147 22.0569 27.8803 21.6636 28.1263M22.7795 26.9523C22.3707 27.4271 21.9764 27.7832 21.5968 28.0207M21.6636 28.1263C21.6637 28.1262 21.6639 28.1261 21.6641 28.126L21.5968 28.0207M21.6636 28.1263C20.6282 28.7876 19.6414 29.125 18.7056 29.125C17.7843 29.125 17.0524 28.9289 16.5262 28.52L16.5226 28.5172L16.5227 28.5172C16.0141 28.0916 15.6876 27.6407 15.5621 27.1621L15.5597 27.1531L15.56 27.153C15.4715 26.6732 15.4266 26.2498 15.4266 25.8839C15.4266 25.5248 15.4413 25.0624 15.4705 24.4975L15.4708 24.4925L15.4709 24.4925C15.4735 24.4639 15.4762 24.4353 15.479 24.4067M21.6636 28.1263C21.6634 28.1264 21.6632 28.1265 21.6631 28.1266L21.5968 28.0207M21.5968 28.0207L15.479 24.4067M15.479 24.4067C15.4829 24.3992 15.4868 24.3917 15.4907 24.3841C15.5419 24.2888 15.5906 24.1979 15.6368 24.1114C15.6213 24.2417 15.6075 24.3725 15.5954 24.504C15.5662 25.0678 15.5516 25.5278 15.5516 25.8839C15.5516 26.2401 15.5954 26.6555 15.683 27.1304C15.7998 27.5755 16.1064 28.0058 16.6029 28.4213L15.479 24.4067ZM15.479 24.4067C15.4799 24.398 15.4808 24.3892 15.4816 24.3804L15.3801 24.3259M15.479 24.4067L6.2142 24.2307M1.14815 28.4213L1.06498 28.328L1.06492 28.328L1.0648 28.3281L1.06451 28.3284L1.06377 28.3291L1.06167 28.331L1.05512 28.3372C1.0498 28.3423 1.04261 28.3494 1.03417 28.3584C1.01741 28.3761 0.995068 28.4016 0.972533 28.433C0.929892 28.4924 0.875 28.5888 0.875 28.7021C0.875 28.8702 0.916851 28.9819 0.98545 29.0509C1.0192 29.0848 1.0551 29.1038 1.08528 29.1139C1.10014 29.1188 1.11335 29.1216 1.12401 29.1231C1.12934 29.1239 1.13408 29.1244 1.13812 29.1246L1.14366 29.1249L1.14604 29.125L1.14712 29.125L1.14764 29.125L1.14789 29.125C1.14802 29.125 1.14814 29.125 1.14815 29M1.14815 28.4213V29M1.14815 29L1.14814 29.125C2.12871 29.125 3.18705 28.3935 4.32218 27.0093C4.92444 26.2749 5.55508 25.3484 6.2142 24.2307M1.14815 29L6.2142 24.2307M6.2142 24.2307C6.20465 24.3177 6.19584 24.405 6.18777 24.4925L6.18767 24.4925L6.18741 24.4975C6.15815 25.0624 6.14344 25.5248 6.14344 25.8839C6.14344 26.2498 6.18839 26.6732 6.27693 27.153L6.27659 27.1531L6.27895 27.1621C6.40453 27.6407 6.73103 28.0916 7.23956 28.5172L7.23951 28.5172L7.24308 28.52C7.7693 28.9289 8.50122 29.125 9.42247 29.125C10.3583 29.125 11.3451 28.7876 12.3805 28.1263C12.7738 27.8802 13.1771 27.5147 13.5908 27.0342M13.5908 27.0342C13.5908 27.0342 13.5908 27.0342 13.5908 27.0343L13.4964 26.9523L13.5912 27.0339C13.5911 27.034 13.591 27.0341 13.5908 27.0342ZM13.5908 27.0342C14.0291 26.5295 14.3663 26.1273 14.6018 25.8282C14.6019 25.8281 14.602 25.8279 14.6022 25.8277L14.504 25.7504C14.7668 25.4239 15.0588 24.9491 15.3801 24.3259M15.3801 24.3259L15.4818 24.3784C15.492 24.2763 15.5032 24.1746 15.5154 24.0732C15.4724 24.1537 15.4273 24.2379 15.3801 24.3259ZM16.6739 19.9731C16.6499 20.0592 16.6262 20.145 16.6029 20.2305C16.599 20.2464 16.5927 20.2691 16.5842 20.2987C16.5626 20.3331 16.5409 20.3698 16.519 20.4086C16.4296 20.588 16.3405 20.765 16.2517 20.9394L16.6739 19.9731ZM17.5428 7.04999L17.5424 7.051C16.8744 8.67426 15.8124 10.656 14.3541 12.9975C13.0409 15.1058 11.7174 16.887 10.3839 18.3422C11.2226 16.1981 12.2688 13.7437 13.5225 10.9788C14.9242 7.92227 16.0298 5.8248 16.8402 4.67786L16.841 4.67663C17.2486 4.08494 17.5877 3.6457 17.8588 3.35563C17.9946 3.21043 18.1102 3.10601 18.2061 3.03877C18.3052 2.96933 18.3685 2.95012 18.4027 2.95012C18.4243 2.95012 18.4698 2.9586 18.5145 3.0884C18.5587 3.21672 18.5843 3.42246 18.5843 3.71542C18.5843 3.99255 18.5016 4.408 18.3271 4.96926C18.1536 5.52777 17.8924 6.22107 17.5428 7.04999ZM26.8259 7.04999L26.8255 7.051C26.1575 8.67426 25.0955 10.656 23.6372 12.9975C22.3241 15.1058 21.0006 16.887 19.6671 18.3422C20.5058 16.1981 21.5519 13.7437 22.8057 10.9788C24.2074 7.92227 25.3129 5.8248 26.1233 4.67786L26.1241 4.67663C26.5317 4.08494 26.8708 3.6457 27.1419 3.35563C27.2777 3.21043 27.3933 3.10601 27.4892 3.03877C27.5883 2.96933 27.6516 2.95012 27.6858 2.95012C27.7074 2.95012 27.7529 2.9586 27.7976 3.0884C27.8418 3.21672 27.8675 3.42246 27.8675 3.71542C27.8675 3.99255 27.7847 4.408 27.6103 4.96926C27.4367 5.52777 27.1755 6.22107 26.8259 7.04999Z" fill="#222222" stroke="black" stroke-width="0.25"/>
</svg>
