<svg width="201" height="102" viewBox="0 0 201 102" fill="none" xmlns="http://www.w3.org/2000/svg">
<path d="M85.1306 8.35653C85.1306 13.4519 83.4615 18.7815 80.1231 24.3454C76.8434 29.9093 72.2751 34.7704 66.4184 38.9286C60.6202 43.0284 54.6171 45.6053 48.409 46.6595C44.8364 53.8633 42.2594 58.9001 40.6781 61.7699L38.8332 64.7568C50.4295 67.6266 60.0346 71.9899 67.6483 77.8466C71.5137 80.8335 74.12 84.494 75.467 88.8279C76.1698 91.0535 76.5213 92.9569 76.5213 94.5383C76.5213 96.1196 76.1991 97.4373 75.5549 98.4916C74.9692 99.6043 74.2664 100.366 73.4465 100.776C72.6265 101.186 72.0409 101.391 71.6895 101.391C71.338 101.391 71.1623 101.244 71.1623 100.951C71.1623 100.659 71.4845 99.78 72.1287 98.3158C72.8315 96.9102 73.1829 95.2411 73.1829 93.3083C73.1829 91.3756 72.7729 89.2379 71.953 86.8952C71.1331 84.5525 69.6103 82.3856 67.3848 80.3943C65.1592 78.4615 62.0551 76.646 58.0726 74.9475C54.1486 73.1905 50.7224 71.9606 47.794 71.2578C44.9242 70.4964 41.0588 69.6472 36.1977 68.7101C31.2195 75.6796 26.0363 80.4528 20.6481 83.0298C17.4269 84.6111 14.5571 85.4018 12.0387 85.4018C9.57887 85.4018 7.3826 84.9039 5.44988 83.9083C2.11155 82.2684 0.442383 79.7793 0.442383 76.441C0.442383 73.1026 2.63865 70.1743 7.0312 67.6559C12.0094 64.7275 18.7447 63.2633 27.2369 63.2633C30.2824 63.2633 33.0351 63.4976 35.4949 63.9661C38.1304 59.8664 41.2052 54.2147 44.7192 47.0109C44.3678 47.0109 44.0457 47.0109 43.7529 47.0109C40.0631 47.0109 36.6369 46.396 33.4743 45.1661C30.3117 43.9361 27.7933 42.267 25.9191 40.1586C23.4593 37.4059 22.2294 34.3018 22.2294 30.8464C22.2294 29.0308 22.6687 27.0688 23.5472 24.9603C24.4842 22.8519 26.5048 20.7142 29.6089 18.5472C32.7715 16.3802 36.7541 14.7404 41.5566 13.6276C42.318 13.4519 42.9622 13.364 43.4893 13.364C44.0164 13.364 44.3385 13.5105 44.4557 13.8033C44.5728 14.0961 44.3385 14.3597 43.7529 14.5939C43.1672 14.8282 42.4937 15.0039 41.7323 15.121C39.2139 15.4139 36.8712 16.2631 34.7042 17.6687C30.9559 20.07 28.3497 23.7597 26.8855 28.7379C26.5341 29.9093 26.3584 31.0513 26.3584 32.1641C26.3584 33.2183 26.5634 34.5068 26.9734 36.0296C27.3833 37.5523 28.2618 39.1336 29.6089 40.7735C30.9559 42.3548 32.7715 43.4676 35.0556 44.1118C37.3983 44.7561 39.4189 45.0782 41.1173 45.0782C42.8744 45.0782 44.485 44.9904 45.9491 44.8146L53.4165 26.0146C58.5704 12.7784 64.7199 4.63751 71.8652 1.59201C73.7393 0.830639 75.5549 0.449951 77.3119 0.449951C79.1275 0.449951 80.8259 1.03562 82.4073 2.20697C84.0471 3.31974 84.9256 4.69608 85.0428 6.33596C85.1014 7.03877 85.1306 7.71229 85.1306 8.35653ZM81.4409 8.44438C81.4409 6.21882 80.416 5.10605 78.3661 5.10605C75.3792 5.10605 71.748 7.71229 67.4726 12.9248C64.1343 17.0831 60.9131 22.1198 57.809 28.0351C54.7635 33.8919 52.0401 39.3093 49.6389 44.2875C57.7797 42.472 65.1006 38.0208 71.6016 30.9342C78.1611 23.789 81.4409 16.2924 81.4409 8.44438ZM32.7715 68.183C29.9017 67.5388 26.9441 67.2166 23.8986 67.2166C20.8531 67.2166 17.7197 67.6559 14.4985 68.5344C7.76329 70.2914 3.81 72.7805 2.63866 76.0017C2.40439 76.5874 2.28725 77.1438 2.28725 77.6709C2.28725 79.1936 3.10719 80.4235 4.74708 81.3606C6.44553 82.3563 8.2904 82.8541 10.2817 82.8541C13.0343 82.8541 16.0213 82.0927 19.2425 80.57C24.1036 78.2273 28.6132 74.0983 32.7715 68.183Z" fill="#222222"/>
<path d="M94.0754 16.4955C93.5619 16.9357 92.9934 17.1557 92.3698 17.1557C91.7463 17.1557 91.2511 16.9357 90.8843 16.4955C90.5176 16.0554 90.3708 15.5235 90.4442 14.9C90.5542 14.2765 90.866 13.7446 91.3795 13.3045C91.893 12.8644 92.4615 12.6443 93.085 12.6443C93.7086 12.6443 94.2037 12.8644 94.5705 13.3045C94.974 13.7446 95.1207 14.2765 95.0107 14.9C94.9006 15.5235 94.5889 16.0554 94.0754 16.4955ZM88.6836 36.687C89.3805 36.687 90.1141 36.3386 90.8843 35.6417C92.2414 34.2846 93.9653 31.5154 96.056 27.334C96.3128 26.7838 96.5695 26.6188 96.8263 26.8389C96.8996 26.9122 96.9363 27.0406 96.9363 27.224C96.9363 27.3707 96.7896 27.7742 96.4961 28.4344C96.2027 29.0579 95.9276 29.6264 95.6709 30.1399C95.4508 30.6534 94.9923 31.497 94.2954 32.6707C93.6352 33.8078 93.03 34.6881 92.4799 35.3116C90.976 37.0355 89.5456 37.8974 88.1885 37.8974C86.868 37.8974 85.9144 37.494 85.3275 36.687C84.7407 35.8801 84.4473 34.9815 84.4473 33.9912C84.4473 33.0008 84.6857 31.9188 85.1625 30.7451L88.6836 21.7772C88.757 21.5572 88.7937 21.2637 88.7937 20.8969C88.7937 20.5302 88.5736 20.0533 88.1335 19.4665L91.1594 19.4115C92.003 19.4115 92.4982 19.5765 92.6449 19.9066C92.7916 20.2001 92.6816 20.6769 92.3148 21.3371L87.9134 31.6254C87.2898 32.9825 86.9781 34.1379 86.9781 35.0915C86.9781 36.1552 87.5466 36.687 88.6836 36.687Z" fill="#222222"/>
<path d="M94.7261 33.496C94.7261 30.4517 96.1933 25.3534 99.1275 18.2011H96.2666C96.0832 18.2011 95.9549 18.1094 95.8815 17.926C95.8448 17.7059 95.8632 17.5042 95.9365 17.3208C96.0465 17.1007 96.1933 16.9907 96.3767 16.9907H99.6777C100.998 14.0931 102.227 11.6723 103.364 9.72834C104.501 7.78439 105.546 6.4823 106.5 5.82209C107.454 5.12519 108.132 4.77675 108.536 4.77675C108.976 4.77675 109.287 4.81343 109.471 4.88678C110.314 5.29025 110.736 6.13385 110.736 7.4176C110.736 8.66467 110.314 10.1868 109.471 11.9841C108.627 13.7813 107.802 15.4502 106.995 16.9907H109.636C109.819 16.9907 109.929 17.1007 109.966 17.3208C110.039 17.5042 110.021 17.7059 109.911 17.926C109.838 18.1094 109.709 18.2011 109.526 18.2011H106.335C104.318 21.6122 101.878 24.6381 99.0175 27.279L97.7521 32.8908C97.6421 33.3676 97.587 33.8444 97.587 34.3213C97.587 34.7614 97.7154 35.2199 97.9722 35.6967C98.2289 36.1735 98.6324 36.4119 99.1826 36.4119C99.8061 36.4119 100.503 36.1919 101.273 35.7517C103.034 34.4313 104.978 31.6621 107.105 27.4441C107.252 27.1139 107.417 26.9122 107.6 26.8389C107.82 26.7655 107.949 26.8205 107.985 27.0039C108.022 27.1506 107.967 27.4074 107.82 27.7742C106.61 30.305 105.656 32.1022 104.959 33.1659C102.979 36.3569 100.87 37.9524 98.6324 37.9524C97.4954 37.9524 96.56 37.5306 95.8265 36.687C95.0929 35.8434 94.7261 34.7797 94.7261 33.496ZM105.785 16.9907C108.205 12.6626 109.416 9.65499 109.416 7.96778C109.416 7.23421 109.287 6.86742 109.031 6.86742C108.627 6.86742 108.004 7.45428 107.16 8.62799C106.353 9.8017 104.978 12.5893 103.034 16.9907H105.785ZM105.069 18.2011H102.484C102.043 19.2281 101.053 21.6672 99.5127 25.5184C101.493 23.4644 103.346 21.0253 105.069 18.2011Z" fill="#222222"/>
<path d="M109.537 29.4247C109.023 30.6718 108.766 32.0655 108.766 33.606C108.766 34.633 108.986 35.4583 109.427 36.0818C109.903 36.6687 110.564 36.9621 111.407 36.9621C114.745 36.9621 117.771 33.8261 120.485 27.5541C120.742 26.9672 121.054 26.7105 121.42 26.7838C121.567 26.8205 121.641 26.9122 121.641 27.0589C121.641 27.2056 121.219 28.1776 120.375 29.9749C119.568 31.7354 118.743 33.1659 117.899 34.2663C116.029 36.8337 113.718 38.1175 110.967 38.1175C109.5 38.1175 108.253 37.6407 107.226 36.687C106.199 35.7334 105.685 34.4313 105.685 32.7808C105.685 31.1302 106.071 29.388 106.841 27.5541C107.648 25.6835 108.73 23.9596 110.087 22.3824C111.444 20.7686 113.003 19.5949 114.763 18.8613C115.607 18.4945 116.414 18.3111 117.184 18.3111C117.954 18.3111 118.67 18.5312 119.33 18.9713C119.953 19.4848 120.265 20.0533 120.265 20.6769C120.265 22.8776 118.945 24.9866 116.304 27.0039C115.497 27.6274 114.36 28.196 112.893 28.7095C111.426 29.1863 110.307 29.4247 109.537 29.4247ZM118.78 20.6219C118.78 19.8883 118.486 19.5215 117.899 19.5215C116.872 19.5215 115.314 20.7869 113.223 23.3177C111.976 24.8582 110.875 26.5821 109.922 28.4894C110.545 28.4894 111.444 28.2693 112.618 27.8292C113.828 27.389 114.873 26.8022 115.754 26.0686C117.771 24.3447 118.78 22.5291 118.78 20.6219Z" fill="#222222"/>
<path d="M128.083 15.8353C128.083 17.4858 127.037 19.0447 124.947 20.5118C125.68 20.5485 126.652 20.5668 127.863 20.5668C129.11 20.5668 130.669 20.4751 132.539 20.2917C132.613 20.4018 132.649 20.6952 132.649 21.172C132.649 21.6489 132.429 22.3641 131.989 23.3177C131.549 24.2347 131.145 25.0416 130.779 25.7385C130.449 26.3987 130.118 27.0406 129.788 27.6641C129.495 28.251 129.146 28.9846 128.743 29.8648C128.376 30.7451 128.064 31.552 127.808 32.2856C126.891 35.0732 127.037 36.467 128.248 36.467C129.788 36.467 132.062 33.4043 135.07 27.279C135.327 26.8022 135.529 26.6188 135.675 26.7288C135.859 26.8389 135.95 26.9856 135.95 27.169C135.95 27.3157 135.712 27.8842 135.235 28.8745C134.758 29.8282 134.245 30.8185 133.695 31.8455C133.144 32.8725 132.282 34.0645 131.109 35.4216C129.715 37.1088 128.376 37.9524 127.092 37.9524C125.662 37.9524 124.672 37.0905 124.121 35.3666C124.011 35.0365 123.956 34.5413 123.956 33.8811C123.956 33.2209 124.158 32.3406 124.562 31.2403C125.002 30.1399 125.68 28.8012 126.597 27.224C127.514 25.6468 128.028 24.7298 128.138 24.4731C128.248 24.1797 128.303 23.9046 128.303 23.6478C128.303 22.5108 126.836 21.9056 123.901 21.8322L123.241 23.5928C120.93 29.6448 118.711 33.6977 116.584 35.7517C116.217 36.0818 116.034 35.9718 116.034 35.4216C116.034 35.3116 116.071 35.1832 116.144 35.0365C118.198 32.3223 119.977 29.1129 121.481 25.4084C122.984 21.7039 124.03 18.1827 124.617 14.845C124.837 13.708 125.35 13.1394 126.157 13.1394C126.964 13.1394 127.551 13.6529 127.918 14.6799C128.028 15.01 128.083 15.3952 128.083 15.8353Z" fill="#222222"/>
<path d="M151.672 22.9876C151.012 23.6478 150.077 25.1516 148.867 27.4991C147.656 29.8098 146.923 31.552 146.666 32.7258C146.446 33.8628 146.336 34.7981 146.336 35.5317C146.336 36.2286 146.611 36.577 147.161 36.577C147.858 36.577 148.72 35.9351 149.747 34.6514C151.251 32.7808 152.736 30.3417 154.203 27.334C154.35 27.0039 154.515 26.8205 154.698 26.7838C154.992 26.6738 155.139 26.7838 155.139 27.1139C155.139 27.2973 155.084 27.5174 154.974 27.7742C151.599 34.5964 148.757 38.0075 146.446 38.0075C145.382 38.0075 144.52 37.494 143.86 36.467C143.53 35.9168 143.365 35.1832 143.365 34.2663C143.365 33.3493 143.548 32.2306 143.915 30.9102C140.981 35.6417 138.45 38.0075 136.323 38.0075C135.736 38.0075 135.204 37.8241 134.727 37.4573C133.627 36.687 133.076 35.3666 133.076 33.496C133.076 29.9015 134.635 26.252 137.753 22.5475C139.514 20.4935 141.678 19.1547 144.245 18.5312C144.942 18.3478 145.602 18.2561 146.226 18.2561C147.913 18.2561 149.343 18.8429 150.517 20.0167C150.884 20.4201 150.994 20.8052 150.847 21.172C150.701 21.5388 150.389 21.6855 149.912 21.6122C149.508 20.2917 148.628 19.6315 147.271 19.6315C145.694 19.6315 143.75 20.8786 141.439 23.3727C140.119 24.8399 138.89 26.5638 137.753 28.5444C136.323 30.9285 135.607 32.8358 135.607 34.2663C135.607 35.6967 136.066 36.4119 136.983 36.4119C139.183 36.4119 142.063 33.0375 145.621 26.2887C146.317 24.9316 146.904 24.0146 147.381 23.5378C147.858 23.0243 148.463 22.7675 149.197 22.7675C149.343 22.7675 149.71 22.8226 150.297 22.9326C150.921 23.0426 151.379 23.061 151.672 22.9876Z" fill="#222222"/>
<path d="M157.208 27.279C157.171 27.4257 157.006 27.9392 156.713 28.8195C156.419 29.6631 156.162 30.4884 155.942 31.2953C155.759 32.0655 155.667 32.8541 155.667 33.6611C155.667 34.4313 155.851 35.1649 156.217 35.8618C156.584 36.522 157.171 36.8521 157.978 36.8521C159.298 36.8521 160.582 35.9718 161.829 34.2112C163.076 32.414 164.397 30.1399 165.791 27.389C166.084 26.8755 166.359 26.6738 166.616 26.7838C166.799 26.9306 166.836 27.1323 166.726 27.389C166.616 27.6091 166.377 28.1226 166.011 28.9295C165.681 29.6998 165.424 30.25 165.24 30.5801C165.094 30.8735 164.8 31.4237 164.36 32.2306C163.957 33.0008 163.59 33.5877 163.26 33.9912C162.966 34.3579 162.545 34.8531 161.994 35.4766C161.481 36.0635 160.986 36.5036 160.509 36.7971C159.225 37.604 158.015 38.0075 156.878 38.0075C155.741 38.0075 154.86 37.769 154.237 37.2922C153.613 36.7787 153.228 36.2469 153.081 35.6967C152.971 35.1099 152.916 34.5964 152.916 34.1562C152.916 33.7161 152.935 33.1476 152.971 32.4507C153.081 31.277 153.302 30.1399 153.632 29.0396C153.998 27.9392 154.2 27.3157 154.237 27.169C155.08 24.1247 156.272 20.8052 157.813 17.2108C159.39 13.6163 160.711 10.9204 161.774 9.12315C162.875 7.28923 163.737 6.04216 164.36 5.38194C165.607 4.06152 166.836 3.40131 168.046 3.40131C168.89 3.40131 169.458 4.0065 169.752 5.21689C169.789 5.43696 169.807 5.71205 169.807 6.04216C169.807 7.28923 169.367 8.8664 168.486 10.7737C165.332 17.7793 161.573 23.281 157.208 27.279ZM157.648 25.5184C159.519 23.6112 161.371 21.2087 163.205 18.3111C165.039 15.4135 166.377 12.9561 167.221 10.9387C168.101 8.88474 168.541 7.49096 168.541 6.75739C168.541 6.02382 168.413 5.65703 168.156 5.65703C167.79 5.65703 167.093 6.3906 166.066 7.85774C165.039 9.2882 163.645 11.8924 161.884 15.6703C160.16 19.4115 158.748 22.6942 157.648 25.5184Z" fill="#222222"/>
<path d="M168.867 27.279C168.83 27.4257 168.665 27.9392 168.372 28.8195C168.078 29.6631 167.821 30.4884 167.601 31.2953C167.418 32.0655 167.326 32.8541 167.326 33.6611C167.326 34.4313 167.51 35.1649 167.876 35.8618C168.243 36.522 168.83 36.8521 169.637 36.8521C170.957 36.8521 172.241 35.9718 173.488 34.2112C174.735 32.414 176.056 30.1399 177.45 27.389C177.743 26.8755 178.018 26.6738 178.275 26.7838C178.458 26.9306 178.495 27.1323 178.385 27.389C178.275 27.6091 178.036 28.1226 177.67 28.9295C177.34 29.6998 177.083 30.25 176.899 30.5801C176.753 30.8735 176.459 31.4237 176.019 32.2306C175.616 33.0008 175.249 33.5877 174.919 33.9912C174.625 34.3579 174.204 34.8531 173.653 35.4766C173.14 36.0635 172.645 36.5036 172.168 36.7971C170.884 37.604 169.674 38.0075 168.537 38.0075C167.4 38.0075 166.519 37.769 165.896 37.2922C165.272 36.7787 164.887 36.2469 164.74 35.6967C164.63 35.1099 164.575 34.5964 164.575 34.1562C164.575 33.7161 164.594 33.1476 164.63 32.4507C164.74 31.277 164.961 30.1399 165.291 29.0396C165.657 27.9392 165.859 27.3157 165.896 27.169C166.739 24.1247 167.932 20.8052 169.472 17.2108C171.049 13.6163 172.37 10.9204 173.433 9.12315C174.534 7.28923 175.396 6.04216 176.019 5.38194C177.266 4.06152 178.495 3.40131 179.705 3.40131C180.549 3.40131 181.117 4.0065 181.411 5.21689C181.448 5.43696 181.466 5.71205 181.466 6.04216C181.466 7.28923 181.026 8.8664 180.145 10.7737C176.991 17.7793 173.232 23.281 168.867 27.279ZM169.307 25.5184C171.178 23.6112 173.03 21.2087 174.864 18.3111C176.698 15.4135 178.036 12.9561 178.88 10.9387C179.76 8.88474 180.2 7.49096 180.2 6.75739C180.2 6.02382 180.072 5.65703 179.815 5.65703C179.449 5.65703 178.752 6.3906 177.725 7.85774C176.698 9.2882 175.304 11.8924 173.543 15.6703C171.819 19.4115 170.407 22.6942 169.307 25.5184Z" fill="#222222"/>
<path d="M169.907 55.283C168.294 55.283 167.046 54.9346 166.166 54.2377C165.286 53.5775 164.846 52.7705 164.846 51.8169C164.846 50.8633 165.121 49.7813 165.671 48.5709C166.625 46.7003 168.349 45.1964 170.843 44.0594C172.713 43.1791 175.189 42.3539 178.27 41.5836C181.351 40.85 183.332 40.3549 184.212 40.0981C185.532 37.7874 187.11 33.6611 188.944 27.7191C186.816 31.4603 185.037 34.0829 183.607 35.5867C182.176 37.0905 180.728 37.8424 179.26 37.8424C177.28 37.8424 176.124 37.0171 175.794 35.3666C175.648 35.1099 175.611 34.7247 175.684 34.2112C175.758 33.6977 175.794 33.331 175.794 33.1109C175.831 32.8908 175.959 32.5424 176.179 32.0655C176.4 31.552 176.546 31.1853 176.62 30.9652C177.023 30.1216 177.371 29.4614 177.665 28.9845C177.078 28.9845 176.913 28.6911 177.17 28.1043L178.16 26.1786C179.407 23.7945 180.434 21.7772 181.241 20.1267C181.608 19.3564 182.323 18.9713 183.387 18.9713H186.743C186.669 19.0447 186.486 19.1914 186.193 19.4115C185.532 19.8516 185.037 20.3651 184.707 20.952C183.387 23.226 181.736 26.4721 179.756 30.6901C178.949 32.414 178.545 33.6794 178.545 34.4863C178.545 35.2932 178.674 35.8618 178.93 36.1919C179.224 36.522 179.609 36.687 180.086 36.687C180.783 36.687 181.755 35.9535 183.002 34.4863C185.606 31.442 188.485 26.6555 191.639 20.1267C192.043 19.3564 192.758 18.9713 193.785 18.9713H196.756C195.802 19.6315 195.051 20.4751 194.5 21.5021C193.95 22.4925 193.345 23.8496 192.685 25.5734C192.061 27.2973 191.254 29.5897 190.264 32.4507C189.31 35.3116 188.577 37.4573 188.063 38.8877C191.511 37.8607 194.152 36.0452 195.986 33.441C196.793 32.304 197.948 30.2866 199.452 27.389C199.709 26.8755 199.929 26.6738 200.112 26.7838C200.332 26.8939 200.442 27.0406 200.442 27.224C200.442 27.4074 200.13 28.1226 199.507 29.3697C198.92 30.5801 198.315 31.7171 197.691 32.7808C197.068 33.8078 196.261 34.8714 195.271 35.9718C194.28 37.0722 193.18 37.9341 191.97 38.5576C190.759 39.2178 189.145 39.9147 187.128 40.6483C184.304 45.7833 181.461 49.5612 178.6 51.982C175.923 54.1827 173.025 55.283 169.907 55.283ZM166.716 49.8363C166.313 50.6432 166.111 51.3768 166.111 52.037C166.111 52.7339 166.368 53.2657 166.881 53.6325C167.395 53.9993 168.037 54.1827 168.807 54.1827C170.934 54.1827 173.208 53.0823 175.629 50.8816C178.05 48.7176 180.177 46.3885 182.011 43.8944L183.222 41.8587C177.17 43.4359 173.355 44.5729 171.778 45.2698C169.431 46.2968 167.743 47.819 166.716 49.8363Z" fill="#222222"/>
<path d="M77.5311 53.1609C76.8708 53.8211 75.9355 55.3249 74.7251 57.6723C73.5148 59.9831 72.7812 61.7253 72.5244 62.899C72.3044 64.036 72.1943 64.9713 72.1943 65.7049C72.1943 66.4018 72.4694 66.7502 73.0196 66.7502C73.7165 66.7502 74.5784 66.1084 75.6054 64.8246C77.1092 62.954 78.5947 60.5149 80.0619 57.5073C80.2086 57.1771 80.3736 56.9938 80.557 56.9571C80.8505 56.847 80.9972 56.9571 80.9972 57.2872C80.9972 57.4706 80.9421 57.6906 80.8321 57.9474C77.4577 64.7696 74.6151 68.1807 72.3044 68.1807C71.2407 68.1807 70.3787 67.6672 69.7185 66.6402C69.3884 66.09 69.2234 65.3564 69.2234 64.4395C69.2234 63.5225 69.4068 62.4038 69.7736 61.0834C66.8393 65.8149 64.3085 68.1807 62.1811 68.1807C61.5942 68.1807 61.0624 67.9973 60.5856 67.6305C59.4852 66.8603 58.9351 65.5398 58.9351 63.6692C58.9351 60.0748 60.4939 56.4252 63.6116 52.7207C65.3721 50.6667 67.5362 49.328 70.1037 48.7044C70.8005 48.521 71.4608 48.4293 72.0843 48.4293C73.7715 48.4293 75.202 49.0162 76.3757 50.1899C76.7425 50.5934 76.8525 50.9785 76.7058 51.3453C76.5591 51.7121 76.2473 51.8588 75.7705 51.7854C75.367 50.465 74.4867 49.8048 73.1296 49.8048C71.5525 49.8048 69.6085 51.0518 67.2978 53.546C65.9773 55.0131 64.7486 56.737 63.6116 58.7176C62.1811 61.1017 61.4659 63.009 61.4659 64.4395C61.4659 65.8699 61.9244 66.5852 62.8413 66.5852C65.042 66.5852 67.9213 63.2108 71.4791 56.4619C72.176 55.1048 72.7628 54.1879 73.2397 53.711C73.7165 53.1975 74.3217 52.9408 75.0553 52.9408C75.202 52.9408 75.5688 52.9958 76.1556 53.1058C76.7791 53.2159 77.2376 53.2342 77.5311 53.1609Z" fill="#222222"/>
<path d="M78.1148 64.8796C78.1148 63.3025 78.7933 61.3952 80.1504 59.1578C79.5636 59.1578 79.3985 58.8644 79.6552 58.2775L80.6456 56.3519C81.8926 53.9678 82.9196 51.9505 83.7266 50.2999C84.0933 49.5297 84.8086 49.1446 85.8723 49.1446H89.2283C87.9079 50.0982 86.5691 51.9505 85.212 54.7014C83.8916 57.4156 82.8646 59.5613 82.131 61.1384C81.3975 62.6789 81.0307 63.8526 81.0307 64.6596C81.0307 65.4665 81.1591 66.035 81.4158 66.3651C81.7092 66.6952 82.0944 66.8603 82.5712 66.8603C83.2681 66.8603 84.2401 66.1267 85.4871 64.6596C87.4311 62.3855 90.1636 57.599 93.6848 50.2999C94.0882 49.5297 94.8035 49.1446 95.8305 49.1446H98.8014C97.9945 49.7681 97.3526 50.41 96.8758 51.0702C96.4357 51.7304 95.8121 52.9041 95.0052 54.5913C92.8045 58.9927 91.5758 61.9087 91.319 63.3391C91.209 63.8526 91.154 64.3295 91.154 64.7696C91.154 65.9433 91.5574 66.5668 92.3643 66.6402C94.345 66.6402 96.7841 63.5775 99.6817 57.4522C99.9018 56.9387 100.122 56.737 100.342 56.847C100.562 56.9571 100.672 57.1038 100.672 57.2872C100.672 57.4706 100.507 57.8924 100.177 58.5526C99.8468 59.2128 99.5166 59.8547 99.1865 60.4782C98.8931 61.1017 98.4163 61.9637 97.7561 63.064C97.1325 64.1277 96.5457 64.9713 95.9955 65.5949C94.5651 67.2087 93.1529 68.0156 91.7592 68.0156C90.402 68.0156 89.4667 67.4104 88.9532 66.2001C88.7332 65.6499 88.6231 64.953 88.6231 64.1094C88.6231 63.2658 88.8065 62.2204 89.1733 60.9734C86.4958 65.6682 84.02 68.0156 81.7459 68.0156C79.7653 68.0156 78.6099 67.1904 78.2798 65.5398C78.1698 65.3565 78.1148 65.1364 78.1148 64.8796Z" fill="#222222"/>
<path d="M107.132 46.0086C107.132 47.6591 106.087 49.2179 103.996 50.6851C104.73 50.7217 105.702 50.7401 106.912 50.7401C108.159 50.7401 109.718 50.6484 111.589 50.465C111.662 50.575 111.699 50.8685 111.699 51.3453C111.699 51.8221 111.479 52.5373 111.039 53.491C110.598 54.4079 110.195 55.2149 109.828 55.9117C109.498 56.572 109.168 57.2138 108.838 57.8374C108.544 58.4242 108.196 59.1578 107.793 60.0381C107.426 60.9184 107.114 61.7253 106.857 62.4589C105.94 65.2464 106.087 66.6402 107.297 66.6402C108.838 66.6402 111.112 63.5775 114.12 57.4522C114.376 56.9754 114.578 56.792 114.725 56.9021C114.908 57.0121 115 57.1588 115 57.3422C115 57.4889 114.761 58.0574 114.285 59.0478C113.808 60.0014 113.294 60.9917 112.744 62.0187C112.194 63.0457 111.332 64.2378 110.158 65.5949C108.764 67.2821 107.426 68.1257 106.142 68.1257C104.712 68.1257 103.721 67.2637 103.171 65.5398C103.061 65.2097 103.006 64.7146 103.006 64.0544C103.006 63.3942 103.208 62.5139 103.611 61.4135C104.051 60.3132 104.73 58.9744 105.647 57.3972C106.564 55.82 107.077 54.9031 107.187 54.6463C107.297 54.3529 107.352 54.0778 107.352 53.8211C107.352 52.684 105.885 52.0788 102.951 52.0055L102.291 53.7661C99.98 59.818 97.761 63.871 95.6336 65.925C95.2668 66.2551 95.0834 66.145 95.0834 65.5949C95.0834 65.4848 95.1201 65.3565 95.1935 65.2097C97.2475 62.4955 99.0264 59.2862 100.53 55.5816C102.034 51.8771 103.079 48.356 103.666 45.0182C103.886 43.8812 104.4 43.3127 105.207 43.3127C106.014 43.3127 106.6 43.8262 106.967 44.8532C107.077 45.1833 107.132 45.5684 107.132 46.0086Z" fill="#222222"/>
<path d="M116.417 59.5979C115.904 60.845 115.647 62.2388 115.647 63.7793C115.647 64.8063 115.867 65.6315 116.307 66.2551C116.784 66.8419 117.444 67.1354 118.288 67.1354C121.626 67.1354 124.652 63.9993 127.366 57.7273C127.623 57.1405 127.934 56.8837 128.301 56.9571C128.448 56.9938 128.521 57.0855 128.521 57.2322C128.521 57.3789 128.1 58.3509 127.256 60.1481C126.449 61.9087 125.624 63.3391 124.78 64.4395C122.909 67.007 120.599 68.2907 117.848 68.2907C116.381 68.2907 115.134 67.8139 114.107 66.8603C113.08 65.9066 112.566 64.6045 112.566 62.954C112.566 61.3035 112.951 59.5613 113.722 57.7273C114.528 55.8567 115.61 54.1328 116.968 52.5557C118.325 50.9418 119.884 49.7681 121.644 49.0345C122.488 48.6677 123.295 48.4843 124.065 48.4843C124.835 48.4843 125.55 48.7044 126.211 49.1446C126.834 49.6581 127.146 50.2266 127.146 50.8501C127.146 53.0508 125.825 55.1598 123.185 57.1771C122.378 57.8007 121.241 58.3692 119.773 58.8827C118.306 59.3595 117.188 59.5979 116.417 59.5979ZM125.66 50.7951C125.66 50.0615 125.367 49.6947 124.78 49.6947C123.753 49.6947 122.194 50.9601 120.104 53.491C118.857 55.0315 117.756 56.7553 116.803 58.6626C117.426 58.6626 118.325 58.4426 119.498 58.0024C120.709 57.5623 121.754 56.9754 122.634 56.2418C124.652 54.518 125.66 52.7024 125.66 50.7951Z" fill="#222222"/>
<path d="M144.151 50.0248C139.64 57.9474 137.384 63.1191 137.384 65.5398C137.384 66.4935 137.733 66.9703 138.43 66.9703C140.3 66.9703 142.813 63.7976 145.967 57.4522C146.187 56.9387 146.407 56.737 146.627 56.847C146.847 56.9571 146.957 57.1038 146.957 57.2872C146.957 57.4706 146.884 57.6906 146.737 57.9474C144.793 61.872 143.143 64.5862 141.786 66.09C140.465 67.5572 139.127 68.2907 137.769 68.2907C136.449 68.2907 135.44 67.7772 134.743 66.7502C134.377 66.2734 134.193 65.6315 134.193 64.8246C134.193 63.981 134.377 62.9724 134.743 61.7986C135.11 60.6249 136.119 58.7176 137.769 56.0768C138.173 55.4166 138.375 54.9031 138.375 54.5363C138.375 54.1328 138.063 53.9311 137.439 53.9311C136.816 53.9311 135.624 54.7564 133.863 56.4069C131.222 58.8277 128.673 62.4589 126.216 67.3004C125.996 67.6672 125.739 67.9056 125.445 68.0156C125.189 68.089 124.657 68.144 123.85 68.1807C123.043 68.2174 122.511 68.3091 122.254 68.4558C122.841 67.2821 123.997 64.8796 125.721 61.2485C128.802 54.8297 130.819 51.1619 131.773 50.2449C132.213 49.8048 132.818 49.5847 133.588 49.5847C133.735 49.5847 134.102 49.6397 134.688 49.7498C135.312 49.8598 135.77 49.8781 136.064 49.8048C134.707 50.5383 132.488 53.9861 129.407 60.1481C131.131 58.0208 132.689 56.3335 134.083 55.0865C135.514 53.8027 137.219 52.629 139.2 51.5653C141.181 50.465 142.629 49.9148 143.546 49.9148C143.766 49.9148 143.968 49.9515 144.151 50.0248Z" fill="#222222"/>
<path d="M95.4658 84.3621V79.923H94.8229L93.2909 83.6577H93.2663L91.7343 79.923H91.0913V84.3621H91.6081V80.9413H91.6297L93.0448 84.3621H93.5124L94.9275 80.9413H94.949V84.3621H95.4658Z" fill="#222222"/>
<path d="M102.174 84.3621H102.755L101.119 79.923H100.571L98.9346 84.3621H99.516L99.9621 83.0916H101.728L102.174 84.3621ZM100.836 80.5967H100.854L101.565 82.6209H100.125L100.836 80.5967Z" fill="#222222"/>
<path d="M106.778 80.4152H107.815C108.387 80.4152 108.731 80.7321 108.731 81.2643C108.731 81.8088 108.408 82.1164 107.839 82.1164H106.778V80.4152ZM106.778 82.6056H107.839L108.79 84.3621H109.439L108.411 82.5194C108.968 82.3441 109.303 81.8642 109.303 81.2458C109.303 80.446 108.744 79.923 107.888 79.923H106.224V84.3621H106.778V82.6056Z" fill="#222222"/>
<path d="M113.517 84.3621V79.923H112.963V84.3621H113.517Z" fill="#222222"/>
<path d="M120.089 83.8638H117.893V82.3379H119.976V81.8457H117.893V80.4214H120.089V79.923H117.339V84.3621H120.089V83.8638Z" fill="#222222"/>
<path d="M125.459 84.3621V80.4214H126.859V79.923H123.506V80.4214H124.906V84.3621H125.459Z" fill="#222222"/>
<path d="M132.081 84.3621V80.4214H133.481V79.923H130.128V80.4214H131.528V84.3621H132.081Z" fill="#222222"/>
<path d="M139.297 84.3621H139.878L138.242 79.923H137.694L136.058 84.3621H136.639L137.085 83.0916H138.851L139.297 84.3621ZM137.959 80.5967H137.977L138.688 82.6209H137.248L137.959 80.5967Z" fill="#222222"/>
<path d="M143.63 85.245L144.052 83.6792H143.483L143.184 85.245H143.63Z" fill="#222222"/>
<path d="M155.597 82.5256V82.1041H153.792V82.5902H155.044V82.6702C155.044 83.4146 154.502 83.9253 153.715 83.9253C152.81 83.9253 152.25 83.2331 152.25 82.1164C152.25 81.0182 152.801 80.3599 153.715 80.3599C154.339 80.3599 154.804 80.7013 154.988 81.3012H155.57C155.404 80.4183 154.675 79.8492 153.715 79.8492C152.472 79.8492 151.681 80.7321 151.681 82.1195C151.681 83.5315 152.475 84.436 153.715 84.436C154.899 84.436 155.597 83.7253 155.597 82.5256Z" fill="#222222"/>
<path d="M162.155 84.3621H162.736L161.1 79.923H160.552L158.915 84.3621H159.497L159.943 83.0916H161.709L162.155 84.3621ZM160.817 80.5967H160.835L161.546 82.6209H160.106L160.817 80.5967Z" fill="#222222"/>
<path d="M93.8415 100.402H91.645V98.8762H93.7277V98.384H91.645V96.9596H93.8415V96.4613H91.0913V100.9H93.8415V100.402Z" fill="#222222"/>
<path d="M97.3195 99.7099C97.3718 100.476 98.0178 100.974 98.9869 100.974C99.9805 100.974 100.627 100.46 100.627 99.6391C100.627 99.0116 100.26 98.6424 99.3345 98.4394L98.8423 98.3317C98.2362 98.1994 97.9994 97.9595 97.9994 97.6087C97.9994 97.1565 98.427 96.8858 98.9807 96.8858C99.5591 96.8858 99.9436 97.1842 99.9928 97.6703H100.547C100.522 96.9166 99.8821 96.3875 98.9961 96.3875C98.0763 96.3875 97.4302 96.9012 97.4302 97.6334C97.4302 98.264 97.8148 98.667 98.7038 98.8608L99.1961 98.9685C99.8113 99.1038 100.057 99.3499 100.057 99.7222C100.057 100.159 99.6206 100.476 99.0176 100.476C98.3808 100.476 97.9378 100.187 97.8732 99.7099H97.3195Z" fill="#222222"/>
<path d="M105.913 100.9V96.9596H107.313V96.4613H103.96V96.9596H105.36V100.9H105.913Z" fill="#222222"/>
<path d="M110.797 100.931C110.994 100.931 111.148 100.777 111.148 100.58C111.148 100.384 110.994 100.23 110.797 100.23C110.6 100.23 110.447 100.384 110.447 100.58C110.447 100.777 110.6 100.931 110.797 100.931Z" fill="#222222"/>
<path d="M118.836 97.7441H119.371C119.371 97.2457 119.784 96.8704 120.331 96.8704C120.839 96.8704 121.165 97.2181 121.165 97.6549C121.165 98.0241 121.026 98.264 120.426 98.8885L118.864 100.519V100.9H121.792V100.408H119.624V100.396L120.679 99.313C121.494 98.4763 121.719 98.1102 121.719 97.6211C121.719 96.9473 121.152 96.3875 120.331 96.3875C119.476 96.3875 118.836 96.9658 118.836 97.7441Z" fill="#222222"/>
<path d="M126.947 100.974C127.981 100.974 128.577 100.079 128.577 98.6762C128.577 97.2827 127.977 96.3875 126.947 96.3875C125.916 96.3875 125.31 97.2888 125.31 98.6793C125.31 100.082 125.91 100.974 126.947 100.974ZM126.947 100.491C126.252 100.491 125.867 99.7837 125.867 98.6762C125.867 97.5934 126.261 96.8735 126.947 96.8735C127.633 96.8735 128.021 97.5872 128.021 98.6793C128.021 99.7868 127.639 100.491 126.947 100.491Z" fill="#222222"/>
<path d="M133.246 100.9H133.781V96.4613H133.24L132.058 97.3103V97.8672L133.234 97.0489H133.246V100.9Z" fill="#222222"/>
<path d="M139.394 100.974C140.335 100.974 141.006 100.445 141.006 99.7006C141.006 99.15 140.625 98.6947 140.049 98.5593V98.547C140.542 98.3901 140.84 98.0179 140.84 97.5565C140.84 96.8797 140.234 96.3875 139.394 96.3875C138.56 96.3875 137.945 96.8827 137.945 97.5534C137.945 98.021 138.25 98.3963 138.739 98.547V98.5593C138.167 98.6916 137.785 99.1469 137.785 99.7006C137.785 100.442 138.456 100.974 139.394 100.974ZM139.394 100.491C138.785 100.491 138.348 100.144 138.348 99.6607C138.348 99.1746 138.785 98.827 139.394 98.827C140.006 98.827 140.44 99.1715 140.44 99.6607C140.44 100.144 140.006 100.491 139.394 100.491ZM139.394 98.3409C138.865 98.3409 138.496 98.0364 138.496 97.6057C138.496 97.1719 138.865 96.8643 139.394 96.8643C139.923 96.8643 140.292 97.1688 140.292 97.6057C140.292 98.0364 139.92 98.3409 139.394 98.3409Z" fill="#222222"/>
<path d="M90.6606 89.0873H193.041V90.6624H90.6606V89.0873Z" fill="#222222"/>
<path d="M185.459 94.0938C185.576 93.9468 185.701 93.7386 185.836 93.4732C185.98 93.2006 186.078 93.012 186.128 92.9092C186.191 92.7906 186.278 92.599 186.386 92.338C186.508 92.0627 186.586 91.8901 186.621 91.8175L186.621 91.8176L186.624 91.8109C186.648 91.7527 186.661 91.6888 186.65 91.6239C186.638 91.5565 186.602 91.5014 186.551 91.46L186.538 91.449L186.522 91.4421C186.428 91.4005 186.336 91.4257 186.264 91.4802C186.198 91.5303 186.141 91.6093 186.089 91.7024L186.089 91.7023L186.086 91.7079C185.627 92.6434 185.193 93.4142 184.784 94.0215C184.379 94.611 183.987 94.8683 183.613 94.8683C183.497 94.8683 183.404 94.844 183.329 94.8006C183.255 94.7576 183.192 94.6917 183.14 94.5971C183.028 94.3769 182.973 94.1464 182.973 93.904C182.973 93.6385 183.002 93.3794 183.06 93.1265C183.132 92.8545 183.216 92.5761 183.312 92.2912L183.312 92.2912L183.313 92.2897C183.393 92.0404 183.446 91.8727 183.469 91.792C184.918 90.4149 186.163 88.5297 187.205 86.1418C187.5 85.4843 187.653 84.9273 187.653 84.4761C187.653 84.3595 187.647 84.2584 187.633 84.1744L187.634 84.1744L187.632 84.1657C187.58 83.9483 187.502 83.7705 187.388 83.6453C187.271 83.5161 187.12 83.4496 186.945 83.4496C186.495 83.4496 186.057 83.7032 185.633 84.1663C185.417 84.4025 185.125 84.8388 184.761 85.4649L184.761 85.4656C184.405 86.0856 183.965 87.0113 183.443 88.2396L183.442 88.2406C182.931 89.4715 182.534 90.6099 182.253 91.6554L182.253 91.6554L182.253 91.6584C182.252 91.6607 182.251 91.6633 182.251 91.6664C182.244 91.6781 182.237 91.6901 182.23 91.7024L182.23 91.7023L182.227 91.7079C181.767 92.6434 181.333 93.4142 180.925 94.0215C180.52 94.611 180.127 94.8683 179.753 94.8683C179.637 94.8683 179.545 94.844 179.47 94.8006C179.396 94.7576 179.332 94.6917 179.281 94.5971C179.169 94.3769 179.113 94.1464 179.113 93.904C179.113 93.6385 179.142 93.3794 179.201 93.1264C179.273 92.8545 179.357 92.5761 179.453 92.2912L179.453 92.2912L179.453 92.2897C179.534 92.0404 179.587 91.8727 179.61 91.792C181.059 90.4149 182.303 88.5297 183.346 86.1418C183.64 85.4843 183.794 84.9273 183.794 84.4761C183.794 84.3595 183.787 84.2584 183.774 84.1744L183.774 84.1744L183.772 84.1657C183.721 83.9483 183.643 83.7705 183.529 83.6453C183.411 83.5161 183.261 83.4496 183.086 83.4496C182.635 83.4496 182.198 83.7032 181.774 84.1663C181.557 84.4025 181.266 84.8388 180.902 85.4649L180.901 85.4656C180.546 86.0856 180.106 87.0113 179.583 88.2396L179.583 88.2396L179.583 88.2406C179.072 89.4715 178.675 90.6099 178.394 91.6554L178.394 91.6554L178.393 91.6584C178.383 91.7026 178.318 91.909 178.195 92.2879L178.195 92.2879L178.194 92.2915C178.083 92.675 178.008 93.0711 177.971 93.4795L177.971 93.4795L177.971 93.4844C177.959 93.7234 177.953 93.9198 177.953 94.073C177.953 94.2328 177.972 94.4159 178.009 94.6212L178.009 94.6213L178.011 94.6302C178.068 94.851 178.215 95.0532 178.434 95.2388L178.434 95.2388L178.437 95.2417C178.674 95.4279 178.996 95.5127 179.389 95.5127C179.796 95.5127 180.22 95.3636 180.658 95.0797C180.83 94.9707 181.003 94.811 181.178 94.605C181.36 94.3919 181.501 94.2213 181.6 94.0938C181.669 94.0061 181.742 93.8966 181.818 93.7661C181.814 93.8826 181.812 93.9849 181.812 94.073C181.812 94.2328 181.831 94.4159 181.869 94.6212L181.868 94.6213L181.871 94.6302C181.928 94.851 182.075 95.0532 182.293 95.2388L182.293 95.2388L182.297 95.2417C182.533 95.4279 182.856 95.5127 183.248 95.5127C183.656 95.5127 184.08 95.3636 184.518 95.0797C184.689 94.9707 184.862 94.811 185.037 94.605C185.219 94.3919 185.36 94.2213 185.459 94.0938ZM185.459 94.0938C185.459 94.0936 185.459 94.0935 185.46 94.0933L185.361 94.0167L185.459 94.0944C185.459 94.0942 185.459 94.094 185.459 94.0938ZM179.873 90.8757C179.917 90.7613 179.963 90.6448 180.01 90.5262C179.928 90.6236 179.846 90.7181 179.764 90.8094C179.723 90.9162 179.683 91.0212 179.644 91.1244L179.873 90.8757ZM183.101 84.4819C183.118 84.4715 183.125 84.4697 183.125 84.4695C183.125 84.4695 183.124 84.4696 183.122 84.4696C183.103 84.4696 183.094 84.4611 183.091 84.4576C183.092 84.4602 183.095 84.4664 183.1 84.4787C183.1 84.4797 183.1 84.4808 183.101 84.4819ZM181.16 87.8142C181.16 87.8141 181.16 87.814 181.16 87.814C181.16 87.8139 181.16 87.8138 181.16 87.8137L181.046 87.7627L181.16 87.8142ZM183.732 90.8757C183.776 90.7613 183.822 90.6448 183.869 90.5262C183.787 90.6236 183.706 90.7181 183.624 90.8094C183.582 90.9162 183.542 91.0212 183.503 91.1244L183.732 90.8757ZM186.96 84.4819C186.977 84.4715 186.985 84.4697 186.985 84.4695C186.985 84.4695 186.984 84.4696 186.982 84.4696C186.963 84.4696 186.953 84.4611 186.95 84.4576C186.952 84.4602 186.955 84.4664 186.959 84.4787C186.959 84.4797 186.96 84.4808 186.96 84.4819ZM185.019 87.8142C185.02 87.8141 185.02 87.814 185.02 87.8139C185.02 87.8138 185.02 87.8138 185.02 87.8137L184.906 87.7627L185.019 87.8142Z" fill="#222222" stroke="#222222" stroke-width="0.25"/>
</svg>
