<svg width="255" height="129" viewBox="0 0 255 129" fill="none" xmlns="http://www.w3.org/2000/svg">
<path d="M107.978 10.4896C107.978 16.9595 105.858 23.727 101.619 30.7919C97.4549 37.8568 91.6542 44.0293 84.2174 49.3094C76.8551 54.5152 69.2324 57.7873 61.3494 59.126C56.813 68.2732 53.5408 74.6688 51.5329 78.3128L49.1903 82.1055C63.9151 85.7495 76.1114 91.2899 85.7792 98.7267C90.6874 102.519 93.9968 107.167 95.7072 112.671C96.5996 115.497 97.0459 117.914 97.0459 119.921C97.0459 121.929 96.6368 123.603 95.8188 124.941C95.0751 126.354 94.1827 127.321 93.1416 127.842C92.1004 128.362 91.3567 128.622 90.9105 128.622C90.4643 128.622 90.2412 128.437 90.2412 128.065C90.2412 127.693 90.6502 126.577 91.4683 124.718C92.3607 122.933 92.8069 120.814 92.8069 118.36C92.8069 115.906 92.2863 113.191 91.2452 110.216C90.204 107.242 88.2705 104.49 85.4445 101.962C82.6185 99.5076 78.6771 97.2022 73.6201 95.0455C68.6374 92.8145 64.2869 91.2528 60.5686 90.3603C56.9246 89.3936 52.0163 88.3152 45.8438 87.1254C39.5225 95.9751 32.941 102.036 26.0992 105.308C22.009 107.316 18.365 108.32 15.1672 108.32C12.0437 108.32 9.25494 107.688 6.80081 106.424C2.56186 104.341 0.442383 101.181 0.442383 96.9419C0.442383 92.7029 3.23117 88.9845 8.80873 85.7867C15.13 82.0684 23.6822 80.2092 34.4655 80.2092C38.3327 80.2092 41.8279 80.5066 44.9514 81.1016C48.2979 75.8958 52.2022 68.7194 56.6643 59.5722C56.2181 59.5722 55.809 59.5722 55.4372 59.5722C50.752 59.5722 46.4015 58.7913 42.3857 57.2296C38.3698 55.6679 35.172 53.5484 32.7923 50.8712C29.6688 47.3759 28.1071 43.4344 28.1071 39.0467C28.1071 36.7413 28.6649 34.25 29.7804 31.5728C30.9703 28.8955 33.536 26.1811 37.4774 23.4295C41.4933 20.6779 46.5503 18.5956 52.6484 17.1827C53.6152 16.9596 54.4332 16.848 55.1025 16.848C55.7719 16.848 56.1809 17.0339 56.3296 17.4058C56.4783 17.7776 56.1809 18.1122 55.4372 18.4097C54.6935 18.7072 53.8383 18.9303 52.8715 19.079C49.6737 19.4509 46.699 20.5292 43.9474 22.314C39.1879 25.3631 35.8785 30.0482 34.0193 36.3695C33.5731 37.8568 33.35 39.307 33.35 40.72C33.35 42.0586 33.6103 43.6947 34.1309 45.6282C34.6515 47.5618 35.767 49.5697 37.4774 51.652C39.1879 53.6599 41.4933 55.0729 44.3936 55.891C47.3683 56.709 49.934 57.118 52.0907 57.118C54.3217 57.118 56.3668 57.0065 58.226 56.7834L67.7078 32.9114C74.2522 16.1043 82.0608 5.76723 91.1336 1.90012C93.5134 0.933341 95.8188 0.449951 98.0498 0.449951C100.355 0.449951 102.512 1.19363 104.52 2.68098C106.602 4.09396 107.718 5.8416 107.866 7.92389C107.941 8.8163 107.978 9.67153 107.978 10.4896ZM103.293 10.6011C103.293 7.77515 101.991 6.36217 99.3884 6.36217C95.5957 6.36217 90.9849 9.67153 85.5561 16.2902C81.3171 21.5703 77.2269 27.9659 73.2854 35.4771C69.4183 42.9138 65.9602 49.7928 62.9111 56.1141C73.2482 53.8087 82.5442 48.1567 90.799 39.1583C99.1281 30.0854 103.293 20.5664 103.293 10.6011ZM41.4933 86.456C37.8493 85.638 34.0937 85.229 30.2266 85.229C26.3595 85.229 22.3808 85.7867 18.2906 86.9023C9.73833 89.1333 4.71852 92.2939 3.23117 96.3841C2.9337 97.1278 2.78496 97.8343 2.78496 98.5036C2.78496 100.437 3.82611 101.999 5.9084 103.189C8.06506 104.453 10.4076 105.085 12.9361 105.085C16.4314 105.085 20.2242 104.118 24.3144 102.185C30.4869 99.2101 36.2132 93.9672 41.4933 86.456Z" fill="#222222"/>
<path d="M119.336 20.8243C118.684 21.3832 117.962 21.6626 117.17 21.6626C116.379 21.6626 115.75 21.3832 115.284 20.8243C114.818 20.2654 114.632 19.5901 114.725 18.7983C114.865 18.0066 115.261 17.3313 115.913 16.7724C116.565 16.2135 117.287 15.9341 118.078 15.9341C118.87 15.9341 119.499 16.2135 119.965 16.7724C120.477 17.3313 120.663 18.0066 120.524 18.7983C120.384 19.5901 119.988 20.2654 119.336 20.8243ZM112.49 46.4631C113.375 46.4631 114.306 46.0206 115.284 45.1357C117.007 43.4125 119.196 39.8962 121.851 34.5868C122.177 33.8882 122.503 33.6786 122.829 33.9581C122.922 34.0512 122.969 34.2142 122.969 34.4471C122.969 34.6334 122.782 35.1457 122.41 35.984C122.037 36.7758 121.688 37.4977 121.362 38.1497C121.082 38.8017 120.5 39.8729 119.615 41.3633C118.777 42.807 118.009 43.9248 117.31 44.7166C115.4 46.9055 113.584 48 111.861 48C110.184 48 108.973 47.4877 108.228 46.4631C107.483 45.4385 107.11 44.2974 107.11 43.0399C107.11 41.7824 107.413 40.4085 108.019 38.9181L112.49 27.5309C112.583 27.2515 112.629 26.8789 112.629 26.4131C112.629 25.9474 112.35 25.3419 111.791 24.5968L115.633 24.5269C116.705 24.5269 117.333 24.7365 117.52 25.1556C117.706 25.5282 117.566 26.1337 117.1 26.972L111.512 40.0359C110.72 41.7591 110.324 43.2262 110.324 44.4371C110.324 45.7878 111.046 46.4631 112.49 46.4631Z" fill="#222222"/>
<path d="M120.162 42.4112C120.162 38.5456 122.025 32.0718 125.751 22.99H122.118C121.885 22.99 121.722 22.8735 121.629 22.6407C121.583 22.3612 121.606 22.1051 121.699 21.8722C121.839 21.5928 122.025 21.453 122.258 21.453H126.45C128.126 17.7737 129.687 14.6999 131.13 12.2315C132.574 9.76306 133.901 8.1097 135.112 7.27137C136.323 6.38647 137.185 5.94402 137.697 5.94402C138.256 5.94402 138.652 5.99059 138.885 6.08374C139.956 6.59605 140.492 7.66724 140.492 9.29732C140.492 10.8808 139.956 12.8136 138.885 15.0957C137.814 17.3778 136.766 19.4969 135.741 21.453H139.094C139.327 21.453 139.467 21.5928 139.514 21.8722C139.607 22.1051 139.583 22.3612 139.444 22.6407C139.351 22.8735 139.188 22.99 138.955 22.99H134.903C132.341 27.3213 129.244 31.1636 125.611 34.5169L124.005 41.6427C123.865 42.2482 123.795 42.8536 123.795 43.4591C123.795 44.018 123.958 44.6001 124.284 45.2056C124.61 45.811 125.122 46.1138 125.821 46.1138C126.613 46.1138 127.498 45.8343 128.476 45.2754C130.711 43.5988 133.18 40.0825 135.881 34.7265C136.067 34.3074 136.277 34.0512 136.51 33.9581C136.789 33.8649 136.952 33.9348 136.999 34.1676C137.045 34.3539 136.975 34.6799 136.789 35.1457C135.252 38.3593 134.041 40.6414 133.156 41.992C130.641 46.0439 127.963 48.0699 125.122 48.0699C123.679 48.0699 122.491 47.5343 121.559 46.4631C120.628 45.3919 120.162 44.0412 120.162 42.4112ZM134.204 21.453C137.278 15.9573 138.815 12.1383 138.815 9.99592C138.815 9.06445 138.652 8.59872 138.326 8.59872C137.814 8.59872 137.022 9.3439 135.951 10.8343C134.926 12.3246 133.18 15.8642 130.711 21.453H134.204ZM133.296 22.99H130.013C129.454 24.294 128.196 27.3912 126.24 32.2814C128.755 29.6733 131.107 26.5761 133.296 22.99Z" fill="#222222"/>
<path d="M138.968 37.2415C138.316 38.825 137.99 40.5948 137.99 42.5509C137.99 43.8549 138.27 44.9029 138.829 45.6946C139.434 46.4398 140.272 46.8124 141.344 46.8124C145.582 46.8124 149.424 42.8303 152.871 34.8662C153.197 34.1211 153.592 33.795 154.058 33.8882C154.244 33.9348 154.338 34.0512 154.338 34.2375C154.338 34.4238 153.802 35.658 152.731 37.9401C151.706 40.1756 150.658 41.992 149.587 43.3892C147.212 46.6494 144.278 48.2794 140.785 48.2794C138.922 48.2794 137.338 47.674 136.034 46.4631C134.73 45.2522 134.078 43.5988 134.078 41.503C134.078 39.4072 134.567 37.1949 135.545 34.8662C136.57 32.491 137.944 30.302 139.667 28.2994C141.39 26.2501 143.37 24.7598 145.605 23.8283C146.676 23.3626 147.701 23.1297 148.679 23.1297C149.657 23.1297 150.565 23.4091 151.404 23.968C152.195 24.62 152.591 25.3419 152.591 26.1337C152.591 28.9281 150.914 31.6061 147.561 34.1676C146.537 34.9594 145.093 35.6813 143.23 36.3333C141.367 36.9388 139.946 37.2415 138.968 37.2415ZM150.705 26.0638C150.705 25.1324 150.332 24.6666 149.587 24.6666C148.283 24.6666 146.304 26.2734 143.649 29.487C142.065 31.4431 140.668 33.632 139.457 36.0539C140.249 36.0539 141.39 35.7744 142.881 35.2155C144.417 34.6567 145.745 33.9115 146.863 32.98C149.424 30.791 150.705 28.4857 150.705 26.0638Z" fill="#222222"/>
<path d="M162.518 19.986C162.518 22.0818 161.191 24.0612 158.536 25.9241C159.467 25.9707 160.701 25.994 162.238 25.994C163.822 25.994 165.801 25.8775 168.177 25.6447C168.27 25.7844 168.316 26.157 168.316 26.7624C168.316 27.3679 168.037 28.2761 167.478 29.487C166.919 30.6513 166.407 31.6759 165.941 32.5608C165.522 33.3992 165.103 34.2142 164.684 35.006C164.311 35.7511 163.868 36.6826 163.356 37.8004C162.89 38.9181 162.495 39.9428 162.169 40.8742C161.004 44.4138 161.191 46.1836 162.727 46.1836C164.684 46.1836 167.571 42.2947 171.39 34.5169C171.716 33.9115 171.972 33.6786 172.159 33.8183C172.391 33.9581 172.508 34.1444 172.508 34.3772C172.508 34.5635 172.205 35.2854 171.6 36.5429C170.994 37.7538 170.342 39.0113 169.644 40.3154C168.945 41.6194 167.851 43.1331 166.36 44.8563C164.59 46.9987 162.89 48.0699 161.26 48.0699C159.444 48.0699 158.187 46.9754 157.488 44.7864C157.348 44.3673 157.278 43.7385 157.278 42.9002C157.278 42.0619 157.534 40.9441 158.047 39.5469C158.606 38.1497 159.467 36.4497 160.632 34.4471C161.796 32.4444 162.448 31.2801 162.588 30.9541C162.727 30.5815 162.797 30.2322 162.797 29.9062C162.797 28.4624 160.934 27.6939 157.208 27.6008L156.37 29.8363C153.436 37.5209 150.618 42.6673 147.917 45.2754C147.451 45.6946 147.218 45.5549 147.218 44.8563C147.218 44.7166 147.265 44.5536 147.358 44.3673C149.966 40.9208 152.225 36.8456 154.135 32.1417C156.044 27.4377 157.371 22.9667 158.117 18.7285C158.396 17.2847 159.048 16.5628 160.073 16.5628C161.097 16.5628 161.843 17.2148 162.308 18.5189C162.448 18.9381 162.518 19.4271 162.518 19.986Z" fill="#222222"/>
<path d="M192.472 29.0678C191.633 29.9062 190.446 31.8157 188.909 34.7964C187.372 37.7305 186.44 39.9428 186.114 41.4331C185.835 42.8769 185.695 44.0645 185.695 44.996C185.695 45.8809 186.044 46.3234 186.743 46.3234C187.628 46.3234 188.722 45.5083 190.027 43.8782C191.936 41.503 193.822 38.4058 195.685 34.5868C195.871 34.1676 196.081 33.9348 196.314 33.8882C196.687 33.7485 196.873 33.8882 196.873 34.3074C196.873 34.5402 196.803 34.8197 196.663 35.1457C192.378 43.8084 188.769 48.1397 185.835 48.1397C184.484 48.1397 183.39 47.4877 182.551 46.1836C182.132 45.485 181.923 44.5536 181.923 43.3892C181.923 42.2249 182.156 40.8044 182.621 39.1277C178.895 45.1357 175.682 48.1397 172.981 48.1397C172.235 48.1397 171.56 47.9069 170.955 47.4411C169.557 46.4631 168.859 44.7864 168.859 42.4112C168.859 37.847 170.838 33.2129 174.797 28.5089C177.032 25.9008 179.78 24.2009 183.04 23.4091C183.925 23.1763 184.764 23.0598 185.555 23.0598C187.698 23.0598 189.514 23.805 191.005 25.2954C191.47 25.8077 191.61 26.2967 191.424 26.7624C191.237 27.2282 190.842 27.4145 190.236 27.3213C189.724 25.6447 188.606 24.8063 186.883 24.8063C184.88 24.8063 182.412 26.3898 179.478 29.5569C177.801 31.4198 176.241 33.6088 174.797 36.1237C172.981 39.151 172.072 41.5728 172.072 43.3892C172.072 45.2056 172.655 46.1138 173.819 46.1138C176.613 46.1138 180.269 41.829 184.787 33.2595C185.672 31.5362 186.417 30.3719 187.023 29.7664C187.628 29.1144 188.396 28.7884 189.328 28.7884C189.514 28.7884 189.98 28.8582 190.725 28.998C191.517 29.1377 192.099 29.161 192.472 29.0678Z" fill="#222222"/>
<path d="M199.5 34.5169C199.454 34.7032 199.244 35.3553 198.871 36.473C198.499 37.5442 198.173 38.5921 197.893 39.6168C197.661 40.5948 197.544 41.5961 197.544 42.6208C197.544 43.5988 197.777 44.5303 198.243 45.4152C198.708 46.2535 199.454 46.6727 200.478 46.6727C202.155 46.6727 203.785 45.5549 205.369 43.3194C206.952 41.0372 208.629 38.1497 210.398 34.6567C210.771 34.0046 211.12 33.7485 211.446 33.8882C211.679 34.0745 211.726 34.3306 211.586 34.6567C211.446 34.9361 211.144 35.5881 210.678 36.6128C210.259 37.5908 209.933 38.2894 209.7 38.7086C209.514 39.0812 209.141 39.7798 208.582 40.8044C208.07 41.7824 207.604 42.5276 207.185 43.0399C206.812 43.5056 206.277 44.1344 205.578 44.9261C204.926 45.6713 204.297 46.2302 203.692 46.6028C202.062 47.6274 200.525 48.1397 199.081 48.1397C197.637 48.1397 196.52 47.837 195.728 47.2315C194.936 46.5795 194.447 45.9042 194.261 45.2056C194.121 44.4604 194.051 43.8084 194.051 43.2495C194.051 42.6906 194.074 41.9687 194.121 41.0838C194.261 39.5935 194.54 38.1497 194.959 36.7525C195.425 35.3553 195.681 34.5635 195.728 34.3772C196.799 30.5116 198.313 26.2967 200.269 21.7325C202.271 17.1683 203.948 13.7451 205.299 11.463C206.696 9.13431 207.79 7.55081 208.582 6.71249C210.166 5.03583 211.726 4.19751 213.263 4.19751C214.334 4.19751 215.056 4.96597 215.428 6.5029C215.475 6.78235 215.498 7.13165 215.498 7.55081C215.498 9.13431 214.939 11.137 213.822 13.5588C209.816 22.4544 205.042 29.4404 199.5 34.5169ZM200.059 32.2814C202.434 29.8596 204.786 26.809 207.115 23.1297C209.444 19.4504 211.144 16.3299 212.215 13.7684C213.333 11.1603 213.891 9.39047 213.891 8.45899C213.891 7.52752 213.728 7.06179 213.402 7.06179C212.937 7.06179 212.052 7.99326 210.748 9.85621C209.444 11.6726 207.674 14.9793 205.438 19.7764C203.249 24.5269 201.456 28.6952 200.059 32.2814Z" fill="#222222"/>
<path d="M214.305 34.5169C214.258 34.7032 214.048 35.3553 213.676 36.473C213.303 37.5442 212.977 38.5921 212.698 39.6168C212.465 40.5948 212.349 41.5961 212.349 42.6208C212.349 43.5988 212.581 44.5303 213.047 45.4152C213.513 46.2535 214.258 46.6727 215.283 46.6727C216.959 46.6727 218.589 45.5549 220.173 43.3194C221.756 41.0372 223.433 38.1497 225.203 34.6567C225.575 34.0046 225.925 33.7485 226.251 33.8882C226.484 34.0745 226.53 34.3306 226.39 34.6567C226.251 34.9361 225.948 35.5881 225.482 36.6128C225.063 37.5908 224.737 38.2894 224.504 38.7086C224.318 39.0812 223.945 39.7798 223.386 40.8044C222.874 41.7824 222.408 42.5276 221.989 43.0399C221.617 43.5056 221.081 44.1344 220.382 44.9261C219.73 45.6713 219.102 46.2302 218.496 46.6028C216.866 47.6274 215.329 48.1397 213.885 48.1397C212.442 48.1397 211.324 47.837 210.532 47.2315C209.74 46.5795 209.251 45.9042 209.065 45.2056C208.925 44.4604 208.856 43.8084 208.856 43.2495C208.856 42.6906 208.879 41.9687 208.925 41.0838C209.065 39.5935 209.345 38.1497 209.764 36.7525C210.229 35.3553 210.486 34.5635 210.532 34.3772C211.603 30.5116 213.117 26.2967 215.073 21.7325C217.076 17.1683 218.752 13.7451 220.103 11.463C221.5 9.13431 222.595 7.55081 223.386 6.71249C224.97 5.03583 226.53 4.19751 228.067 4.19751C229.138 4.19751 229.86 4.96597 230.233 6.5029C230.279 6.78235 230.303 7.13165 230.303 7.55081C230.303 9.13431 229.744 11.137 228.626 13.5588C224.621 22.4544 219.847 29.4404 214.305 34.5169ZM214.864 32.2814C217.239 29.8596 219.591 26.809 221.919 23.1297C224.248 19.4504 225.948 16.3299 227.019 13.7684C228.137 11.1603 228.696 9.39047 228.696 8.45899C228.696 7.52752 228.533 7.06179 228.207 7.06179C227.741 7.06179 226.856 7.99326 225.552 9.85621C224.248 11.6726 222.478 14.9793 220.243 19.7764C218.054 24.5269 216.261 28.6952 214.864 32.2814Z" fill="#222222"/>
<path d="M215.626 70.0759C213.577 70.0759 211.993 69.6335 210.875 68.7486C209.758 67.9102 209.199 66.8856 209.199 65.6747C209.199 64.4638 209.548 63.0899 210.247 61.5529C211.458 59.1777 213.647 57.2682 216.814 55.8244C219.189 54.7066 222.333 53.6587 226.245 52.6807C230.157 51.7492 232.672 51.1204 233.79 50.7944C235.466 47.8603 237.469 42.6208 239.798 35.0758C237.096 39.8263 234.838 43.1563 233.021 45.0659C231.205 46.9754 229.365 47.9301 227.502 47.9301C224.987 47.9301 223.52 46.8822 223.101 44.7864C222.915 44.4604 222.868 43.9714 222.961 43.3194C223.054 42.6673 223.101 42.2016 223.101 41.9221C223.148 41.6427 223.311 41.2003 223.59 40.5948C223.87 39.9428 224.056 39.477 224.149 39.1976C224.661 38.1264 225.104 37.2881 225.476 36.6826C224.731 36.6826 224.522 36.31 224.848 35.5648L226.105 33.1197C227.689 30.0924 228.993 27.5309 230.017 25.4351C230.483 24.457 231.391 23.968 232.742 23.968H237.003C236.91 24.0612 236.677 24.2475 236.305 24.5269C235.466 25.0858 234.838 25.7378 234.418 26.483C232.742 29.3706 230.646 33.4923 228.131 38.8483C227.106 41.0372 226.594 42.644 226.594 43.6687C226.594 44.6933 226.757 45.4152 227.083 45.8343C227.456 46.2535 227.945 46.4631 228.55 46.4631C229.435 46.4631 230.669 45.5316 232.253 43.6687C235.559 39.803 239.216 33.7252 243.221 25.4351C243.733 24.457 244.641 23.968 245.945 23.968H249.718C248.507 24.8063 247.552 25.8775 246.854 27.1816C246.155 28.4391 245.387 30.1623 244.548 32.3513C243.756 34.5402 242.732 37.4511 241.474 41.0838C240.263 44.7166 239.332 47.4411 238.68 49.2575C243.058 47.9534 246.411 45.648 248.74 42.3413C249.764 40.8975 251.232 38.336 253.141 34.6567C253.467 34.0046 253.747 33.7485 253.979 33.8882C254.259 34.0279 254.399 34.2142 254.399 34.4471C254.399 34.6799 254.003 35.5881 253.211 37.1716C252.466 38.7086 251.697 40.1523 250.906 41.503C250.114 42.807 249.089 44.1577 247.832 45.5549C246.574 46.9521 245.177 48.0466 243.64 48.8383C242.103 49.6767 240.054 50.5616 237.492 51.493C233.906 58.0133 230.297 62.8104 226.664 65.8843C223.264 68.6787 219.585 70.0759 215.626 70.0759ZM211.574 63.1597C211.062 64.1843 210.806 65.1158 210.806 65.9541C210.806 66.839 211.132 67.5144 211.784 67.9801C212.436 68.4458 213.251 68.6787 214.229 68.6787C216.93 68.6787 219.818 67.2815 222.891 64.4871C225.965 61.7392 228.667 58.7818 230.995 55.6148L232.532 53.03C224.848 55.0326 220.004 56.4764 218.001 57.3613C215.021 58.6654 212.878 60.5982 211.574 63.1597Z" fill="#222222"/>
<path d="M98.3282 67.3812C97.4898 68.2196 96.3022 70.1291 94.7653 73.1098C93.2283 76.0439 92.2969 78.2562 91.9709 79.7465C91.6914 81.1903 91.5517 82.3779 91.5517 83.3094C91.5517 84.1943 91.901 84.6368 92.5996 84.6368C93.4845 84.6368 94.579 83.8217 95.883 82.1917C97.7926 79.8164 99.6788 76.7192 101.542 72.9002C101.728 72.481 101.938 72.2482 102.17 72.2016C102.543 72.0619 102.729 72.2016 102.729 72.6208C102.729 72.8536 102.66 73.1331 102.52 73.4591C98.235 82.1218 94.6256 86.4531 91.6914 86.4531C90.3408 86.4531 89.2463 85.8011 88.408 84.497C87.9888 83.7984 87.7792 82.867 87.7792 81.7026C87.7792 80.5383 88.0121 79.1178 88.4778 77.4411C84.7519 83.4491 81.5384 86.4531 78.8371 86.4531C78.0919 86.4531 77.4166 86.2203 76.8111 85.7545C75.4139 84.7765 74.7153 83.0998 74.7153 80.7246C74.7153 76.1604 76.6947 71.5263 80.6535 66.8224C82.889 64.2142 85.6368 62.5143 88.897 61.7225C89.7819 61.4897 90.6202 61.3732 91.412 61.3732C93.5544 61.3732 95.3707 62.1184 96.8611 63.6088C97.3268 64.1211 97.4665 64.6101 97.2803 65.0758C97.094 65.5416 96.6981 65.7279 96.0926 65.6347C95.5803 63.9581 94.4625 63.1198 92.7393 63.1198C90.7367 63.1198 88.2683 64.7033 85.3341 67.8703C83.6575 69.7332 82.0973 71.9222 80.6535 74.4371C78.8371 77.4644 77.9289 79.8863 77.9289 81.7026C77.9289 83.519 78.5111 84.4272 79.6754 84.4272C82.4698 84.4272 86.1259 80.1424 90.6435 71.5729C91.5284 69.8496 92.2736 68.6853 92.879 68.0798C93.4845 67.4278 94.253 67.1018 95.1844 67.1018C95.3707 67.1018 95.8365 67.1717 96.5816 67.3114C97.3734 67.4511 97.9556 67.4744 98.3282 67.3812Z" fill="#222222"/>
<path d="M99.0693 82.2615C99.0693 80.2588 99.9309 77.837 101.654 74.996C100.909 74.996 100.699 74.6234 101.025 73.8783L102.283 71.4331C103.866 68.4059 105.17 65.8443 106.195 63.7485C106.661 62.7704 107.569 62.2814 108.92 62.2814H113.181C111.504 63.4923 109.805 65.8443 108.081 69.3373C106.405 72.7838 105.101 75.5083 104.169 77.511C103.238 79.4671 102.772 80.9574 102.772 81.9821C102.772 83.0067 102.935 83.7286 103.261 84.1477C103.634 84.5669 104.123 84.7765 104.728 84.7765C105.613 84.7765 106.847 83.845 108.431 81.9821C110.899 79.0945 114.369 73.0166 118.84 63.7485C119.352 62.7704 120.26 62.2814 121.564 62.2814H125.337C124.312 63.0732 123.497 63.8882 122.892 64.7265C122.333 65.5649 121.541 67.0552 120.516 69.1976C117.722 74.7864 116.162 78.489 115.836 80.3054C115.696 80.9574 115.626 81.5629 115.626 82.1218C115.626 83.6121 116.139 84.4039 117.163 84.497C119.678 84.497 122.775 80.6081 126.455 72.8304C126.734 72.1783 127.014 71.9222 127.293 72.0619C127.572 72.2016 127.712 72.3879 127.712 72.6208C127.712 72.8536 127.503 73.3892 127.083 74.2276C126.664 75.0659 126.245 75.8809 125.826 76.6727C125.453 77.4644 124.848 78.5589 124.01 79.9561C123.218 81.3068 122.473 82.3779 121.774 83.1697C119.958 85.2189 118.165 86.2436 116.395 86.2436C114.672 86.2436 113.484 85.4751 112.832 83.9382C112.552 83.2396 112.413 82.3547 112.413 81.2835C112.413 80.2123 112.646 78.8849 113.111 77.3014C109.711 83.2628 106.568 86.2436 103.68 86.2436C101.165 86.2436 99.6981 85.1956 99.2789 83.0998C99.1392 82.867 99.0693 82.5875 99.0693 82.2615Z" fill="#222222"/>
<path d="M135.915 58.2994C135.915 60.3952 134.588 62.3746 131.933 64.2375C132.865 64.2841 134.099 64.3074 135.636 64.3074C137.219 64.3074 139.199 64.1909 141.574 63.9581C141.667 64.0978 141.714 64.4704 141.714 65.0758C141.714 65.6813 141.434 66.5895 140.875 67.8004C140.316 68.9647 139.804 69.9894 139.338 70.8743C138.919 71.7126 138.5 72.5276 138.081 73.3194C137.708 74.0646 137.266 74.996 136.754 76.1138C136.288 77.2316 135.892 78.2562 135.566 79.1877C134.402 82.7272 134.588 84.497 136.125 84.497C138.081 84.497 140.968 80.6081 144.788 72.8304C145.114 72.2249 145.37 71.992 145.556 72.1317C145.789 72.2715 145.905 72.4578 145.905 72.6906C145.905 72.8769 145.603 73.5988 144.997 74.8563C144.392 76.0672 143.74 77.3247 143.041 78.6288C142.342 79.9328 141.248 81.4465 139.758 83.1697C137.988 85.3121 136.288 86.3833 134.658 86.3833C132.841 86.3833 131.584 85.2888 130.885 83.0998C130.746 82.6807 130.676 82.0519 130.676 81.2136C130.676 80.3753 130.932 79.2575 131.444 77.8603C132.003 76.4631 132.865 74.7632 134.029 72.7605C135.193 70.7578 135.845 69.5935 135.985 69.2675C136.125 68.8949 136.195 68.5456 136.195 68.2196C136.195 66.7758 134.332 66.0073 130.606 65.9142L129.768 68.1497C126.833 75.8344 124.016 80.9807 121.314 83.5889C120.849 84.008 120.616 83.8683 120.616 83.1697C120.616 83.03 120.662 82.867 120.756 82.6807C123.364 79.2342 125.622 75.159 127.532 70.4551C129.442 65.7512 130.769 61.2801 131.514 57.0419C131.793 55.5981 132.446 54.8762 133.47 54.8762C134.495 54.8762 135.24 55.5283 135.706 56.8323C135.845 57.2515 135.915 57.7405 135.915 58.2994Z" fill="#222222"/>
<path d="M147.705 75.5549C147.053 77.1384 146.727 78.9082 146.727 80.8643C146.727 82.1684 147.007 83.2163 147.566 84.008C148.171 84.7532 149.009 85.1258 150.081 85.1258C154.319 85.1258 158.161 81.1437 161.608 73.1797C161.934 72.4345 162.329 72.1085 162.795 72.2016C162.981 72.2482 163.075 72.3646 163.075 72.5509C163.075 72.7372 162.539 73.9714 161.468 76.2535C160.443 78.489 159.395 80.3054 158.324 81.7026C155.949 84.9628 153.015 86.5929 149.522 86.5929C147.659 86.5929 146.075 85.9874 144.771 84.7765C143.467 83.5656 142.815 81.9122 142.815 79.8164C142.815 77.7206 143.304 75.5083 144.282 73.1797C145.307 70.8044 146.681 68.6154 148.404 66.6128C150.127 64.5635 152.106 63.0732 154.342 62.1417C155.413 61.676 156.438 61.4431 157.416 61.4431C158.394 61.4431 159.302 61.7225 160.14 62.2814C160.932 62.9335 161.328 63.6553 161.328 64.4471C161.328 67.2415 159.651 69.9195 156.298 72.481C155.274 73.2728 153.83 73.9947 151.967 74.6467C150.104 75.2522 148.683 75.5549 147.705 75.5549ZM159.442 64.3772C159.442 63.4458 159.069 62.98 158.324 62.98C157.02 62.98 155.041 64.5868 152.386 67.8004C150.802 69.7565 149.405 71.9455 148.194 74.3673C148.986 74.3673 150.127 74.0878 151.617 73.529C153.154 72.9701 154.482 72.2249 155.6 71.2934C158.161 69.1045 159.442 66.7991 159.442 64.3772Z" fill="#222222"/>
<path d="M182.922 63.3992C177.193 73.4591 174.329 80.026 174.329 83.0998C174.329 84.3107 174.771 84.9162 175.656 84.9162C178.031 84.9162 181.222 80.8876 185.227 72.8304C185.506 72.1783 185.786 71.9222 186.065 72.0619C186.345 72.2016 186.484 72.3879 186.484 72.6208C186.484 72.8536 186.391 73.1331 186.205 73.4591C183.737 78.4425 181.641 81.8889 179.918 83.7984C178.241 85.6614 176.541 86.5929 174.818 86.5929C173.141 86.5929 171.86 85.9408 170.975 84.6368C170.51 84.0313 170.277 83.2163 170.277 82.1917C170.277 81.1205 170.51 79.8397 170.975 78.3493C171.441 76.859 172.722 74.4371 174.818 71.0838C175.33 70.2455 175.586 69.5935 175.586 69.1277C175.586 68.6154 175.19 68.3593 174.399 68.3593C173.607 68.3593 172.093 69.4072 169.858 71.503C166.504 74.5769 163.267 79.1877 160.147 85.3354C159.868 85.8011 159.542 86.1038 159.169 86.2436C158.843 86.3367 158.168 86.4066 157.143 86.4531C156.118 86.4997 155.443 86.6161 155.117 86.8024C155.862 85.3121 157.329 82.2615 159.518 77.6507C163.43 69.5003 165.992 64.843 167.203 63.6786C167.762 63.1198 168.53 62.8403 169.508 62.8403C169.695 62.8403 170.16 62.9102 170.906 63.0499C171.697 63.1896 172.279 63.2129 172.652 63.1198C170.929 64.0512 168.111 68.4291 164.199 76.2535C166.388 73.5522 168.367 71.4099 170.137 69.8264C171.953 68.1963 174.119 66.7059 176.634 65.3553C179.149 63.9581 180.989 63.2595 182.153 63.2595C182.432 63.2595 182.689 63.306 182.922 63.3992Z" fill="#222222"/>
<path d="M121.102 107V101.363H120.285L118.34 106.105H118.309L116.363 101.363H115.547V107H116.203V102.656H116.23L118.027 107H118.621L120.418 102.656H120.445V107H121.102Z" fill="#222222"/>
<path d="M129.619 107H130.358L128.28 101.363H127.584L125.506 107H126.244L126.811 105.387H129.053L129.619 107ZM127.92 102.219H127.944L128.846 104.789H127.018L127.92 102.219Z" fill="#222222"/>
<path d="M135.465 101.988H136.782C137.508 101.988 137.946 102.391 137.946 103.066C137.946 103.758 137.536 104.148 136.813 104.148H135.465V101.988ZM135.465 104.77H136.813L138.02 107H138.844L137.54 104.66C138.247 104.438 138.672 103.828 138.672 103.043C138.672 102.027 137.961 101.363 136.875 101.363H134.762V107H135.465V104.77Z" fill="#222222"/>
<path d="M144.022 107V101.363H143.319V107H144.022Z" fill="#222222"/>
<path d="M152.368 106.367H149.579V104.43H152.224V103.805H149.579V101.996H152.368V101.363H148.876V107H152.368V106.367Z" fill="#222222"/>
<path d="M159.187 107V101.996H160.964V101.363H156.706V101.996H158.484V107H159.187Z" fill="#222222"/>
<path d="M167.595 107V101.996H169.373V101.363H165.115V101.996H166.892V107H167.595Z" fill="#222222"/>
<path d="M176.757 107H177.496L175.418 101.363H174.722L172.644 107H173.382L173.949 105.387H176.191L176.757 107ZM175.058 102.219H175.082L175.984 104.789H174.156L175.058 102.219Z" fill="#222222"/>
<path d="M182.26 108.121L182.795 106.133H182.072L181.693 108.121H182.26Z" fill="#222222"/>
<path d="M197.455 104.668V104.133H195.163V104.75H196.752V104.852C196.752 105.797 196.065 106.445 195.065 106.445C193.916 106.445 193.205 105.566 193.205 104.148C193.205 102.754 193.905 101.918 195.065 101.918C195.858 101.918 196.448 102.352 196.682 103.113H197.42C197.209 101.992 196.284 101.27 195.065 101.27C193.487 101.27 192.483 102.391 192.483 104.152C192.483 105.945 193.491 107.094 195.065 107.094C196.569 107.094 197.455 106.191 197.455 104.668Z" fill="#222222"/>
<path d="M205.782 107H206.52L204.442 101.363H203.747L201.669 107H202.407L202.973 105.387H205.215L205.782 107ZM204.083 102.219H204.106L205.008 104.789H203.18L204.083 102.219Z" fill="#222222"/>
<path d="M119.039 127.367H116.25V125.43H118.895V124.805H116.25V122.996H119.039V122.363H115.547V128H119.039V127.367Z" fill="#222222"/>
<path d="M123.455 126.488C123.522 127.461 124.342 128.094 125.573 128.094C126.834 128.094 127.655 127.441 127.655 126.398C127.655 125.602 127.19 125.133 126.014 124.875L125.389 124.738C124.619 124.57 124.319 124.266 124.319 123.82C124.319 123.246 124.862 122.902 125.565 122.902C126.299 122.902 126.787 123.281 126.85 123.898H127.553C127.522 122.941 126.709 122.27 125.584 122.27C124.416 122.27 123.596 122.922 123.596 123.852C123.596 124.652 124.084 125.164 125.213 125.41L125.838 125.547C126.619 125.719 126.932 126.031 126.932 126.504C126.932 127.059 126.377 127.461 125.612 127.461C124.803 127.461 124.24 127.094 124.158 126.488H123.455Z" fill="#222222"/>
<path d="M134.368 128V122.996H136.145V122.363H131.887V122.996H133.665V128H134.368Z" fill="#222222"/>
<path d="M140.569 128.039C140.819 128.039 141.014 127.844 141.014 127.594C141.014 127.344 140.819 127.148 140.569 127.148C140.319 127.148 140.124 127.344 140.124 127.594C140.124 127.844 140.319 128.039 140.569 128.039Z" fill="#222222"/>
<path d="M150.777 123.992H151.456C151.456 123.359 151.98 122.883 152.675 122.883C153.32 122.883 153.734 123.324 153.734 123.879C153.734 124.348 153.558 124.652 152.796 125.445L150.812 127.516V128H154.53V127.375H151.777V127.359L153.116 125.984C154.152 124.922 154.437 124.457 154.437 123.836C154.437 122.98 153.718 122.27 152.675 122.27C151.589 122.27 150.777 123.004 150.777 123.992Z" fill="#222222"/>
<path d="M161.076 128.094C162.388 128.094 163.146 126.957 163.146 125.176C163.146 123.406 162.384 122.27 161.076 122.27C159.767 122.27 158.998 123.414 158.998 125.18C158.998 126.961 159.759 128.094 161.076 128.094ZM161.076 127.48C160.193 127.48 159.705 126.582 159.705 125.176C159.705 123.801 160.205 122.887 161.076 122.887C161.947 122.887 162.439 123.793 162.439 125.18C162.439 126.586 161.955 127.48 161.076 127.48Z" fill="#222222"/>
<path d="M169.074 128H169.754V122.363H169.066L167.566 123.441V124.148L169.058 123.109H169.074V128Z" fill="#222222"/>
<path d="M176.881 128.094C178.076 128.094 178.928 127.422 178.928 126.477C178.928 125.777 178.443 125.199 177.713 125.027V125.012C178.338 124.812 178.717 124.34 178.717 123.754C178.717 122.895 177.947 122.27 176.881 122.27C175.822 122.27 175.041 122.898 175.041 123.75C175.041 124.344 175.428 124.82 176.049 125.012V125.027C175.322 125.195 174.838 125.773 174.838 126.477C174.838 127.418 175.689 128.094 176.881 128.094ZM176.881 127.48C176.107 127.48 175.553 127.039 175.553 126.426C175.553 125.809 176.107 125.367 176.881 125.367C177.658 125.367 178.209 125.805 178.209 126.426C178.209 127.039 177.658 127.48 176.881 127.48ZM176.881 124.75C176.209 124.75 175.74 124.363 175.74 123.816C175.74 123.266 176.209 122.875 176.881 122.875C177.553 122.875 178.021 123.262 178.021 123.816C178.021 124.363 177.549 124.75 176.881 124.75Z" fill="#222222"/>
<path d="M115 113H245V115H115V113Z" fill="#222222"/>
<path d="M230.789 118.804C230.668 119.023 230.553 119.201 230.446 119.336C230.321 119.498 230.142 119.714 229.911 119.984C229.911 119.984 229.911 119.984 229.911 119.984L230.789 118.804ZM230.789 118.804C230.78 119.01 230.776 119.186 230.776 119.331C230.776 119.531 230.8 119.761 230.847 120.021L230.847 120.021L230.849 120.03C230.919 120.301 231.1 120.552 231.375 120.785L231.375 120.785L231.378 120.788C231.67 121.018 232.071 121.125 232.566 121.125C233.074 121.125 233.606 120.939 234.159 120.581M227.665 121.125C228.174 121.125 228.706 120.939 229.259 120.581L235.248 119.259C235.387 119.084 235.541 118.83 235.711 118.496L235.821 118.554C235.821 118.554 235.821 118.554 235.822 118.554C236.005 118.207 236.129 117.967 236.192 117.838C236.272 117.688 236.381 117.446 236.519 117.114C236.673 116.765 236.772 116.545 236.817 116.452L236.818 116.452L236.82 116.445C236.85 116.375 236.864 116.301 236.851 116.227C236.838 116.15 236.797 116.087 236.738 116.039L236.725 116.028L236.709 116.021C236.604 115.974 236.5 116.002 236.416 116.065C236.337 116.125 236.267 116.22 236.203 116.337L236.202 116.337L236.2 116.342C235.616 117.531 235.063 118.511 234.543 119.284C234.027 120.036 233.52 120.374 233.028 120.374C232.876 120.374 232.752 120.342 232.651 120.284C232.551 120.226 232.466 120.137 232.399 120.012C232.254 119.727 232.182 119.429 232.182 119.116C232.182 118.776 232.219 118.445 232.294 118.121C232.385 117.774 232.492 117.42 232.615 117.057L232.615 117.057L232.615 117.056C232.721 116.729 232.789 116.513 232.816 116.416C234.655 114.671 236.235 112.279 237.559 109.246C237.932 108.413 238.125 107.711 238.125 107.145C238.125 106.998 238.117 106.871 238.1 106.767L238.101 106.767L238.099 106.758C238.034 106.485 237.937 106.266 237.798 106.113C237.654 105.955 237.472 105.875 237.26 105.875C236.701 105.875 236.154 106.189 235.618 106.774C235.346 107.071 234.978 107.622 234.516 108.417L234.515 108.418C234.064 109.203 233.507 110.377 232.844 111.937L232.843 111.938C232.194 113.5 231.691 114.944 231.335 116.27L231.335 116.27L231.334 116.273C231.333 116.277 231.332 116.282 231.33 116.288C231.321 116.304 231.311 116.32 231.302 116.337L231.302 116.337L231.299 116.342C230.715 117.531 230.163 118.511 229.643 119.284C229.127 120.036 228.62 120.374 228.128 120.374C227.976 120.374 227.852 120.342 227.751 120.284C227.651 120.226 227.566 120.137 227.498 120.012C227.353 119.727 227.281 119.429 227.281 119.116C227.281 118.776 227.319 118.444 227.393 118.121C227.485 117.774 227.592 117.42 227.714 117.057L227.714 117.057L227.715 117.056C227.82 116.729 227.888 116.513 227.915 116.416C229.754 114.671 231.334 112.279 232.659 109.246C233.032 108.413 233.224 107.711 233.224 107.145C233.224 106.998 233.217 106.871 233.2 106.767L233.2 106.767L233.198 106.758C233.134 106.485 233.036 106.266 232.897 106.113C232.754 105.955 232.572 105.875 232.359 105.875C231.801 105.875 231.253 106.189 230.718 106.774C230.446 107.071 230.078 107.622 229.615 108.417L229.615 108.418C229.164 109.203 228.607 110.377 227.943 111.937L227.943 111.937L227.943 111.938C227.294 113.5 226.791 114.944 226.434 116.27L226.434 116.27L226.434 116.273C226.42 116.33 226.337 116.594 226.182 117.074L226.182 117.074L226.181 117.078C226.04 117.563 225.946 118.064 225.899 118.58L225.899 118.58L225.898 118.585C225.883 118.888 225.875 119.137 225.875 119.331C225.875 119.531 225.899 119.761 225.946 120.021L225.946 120.021L225.948 120.03C226.019 120.301 226.2 120.552 226.474 120.785L226.474 120.785L226.478 120.788C226.77 121.018 227.171 121.125 227.665 121.125Z" fill="#222222" stroke="#222222" stroke-width="0.25"/>
</svg>
